<svg role="img" viewBox="0 0 24 24" xmlns="http://www.w3.org/2000/svg" fill="currentColor"><title>LinkedIn</title><path d="M22.225 0H1.771A1.771 1.771 0 0 0 0 1.771v20.452A1.771 1.771 0 0 0 1.771 24h20.452A1.771 1.771 0 0 0 24 22.223V1.771A1.771 1.771 0 0 0 22.225 0zM7.118 20.452H3.56V9h3.558zM5.34 7.433a2.063 2.063 0 1 1 0-4.126 2.063 2.063 0 0 1 0 4.126zm15.11 13.019h-3.554v-5.569c0-1.328-.025-3.037-1.852-3.037-1.853 0-2.136 1.445-2.136 2.939v5.667h-3.554V9h3.414v1.561h.049c.476-.9 1.637-1.852 3.37-1.852 3.602 0 4.268 2.37 4.268 5.455z"/></svg>
