<svg id="svg" version="1.1" xmlns="http://www.w3.org/2000/svg" xmlns:xlink="http://www.w3.org/1999/xlink" width="400" height="400" viewBox="0, 0, 400,400"><g id="svgg"><path id="path0" d="M222.000 25.450 C 221.670 25.572,220.838 25.923,220.151 26.230 C 219.465 26.537,217.711 26.958,216.253 27.164 C 214.702 27.384,213.186 27.867,212.597 28.331 C 212.044 28.766,210.693 29.338,209.595 29.601 C 208.498 29.864,207.600 30.251,207.600 30.460 C 207.600 30.670,206.927 31.122,206.103 31.466 C 205.280 31.810,204.096 32.521,203.473 33.046 C 202.849 33.571,202.103 34.000,201.815 34.000 C 201.527 34.000,200.997 34.450,200.637 35.000 C 200.276 35.550,199.806 36.000,199.591 36.000 C 199.072 36.000,196.000 39.087,196.000 39.609 C 196.000 39.833,195.550 40.222,195.000 40.473 C 194.450 40.723,194.000 41.228,194.000 41.594 C 194.000 41.961,193.565 42.669,193.034 43.168 C 192.502 43.667,191.951 44.554,191.809 45.138 C 191.666 45.722,191.130 46.830,190.617 47.600 C 190.103 48.370,189.566 49.900,189.423 51.000 C 189.279 52.100,188.783 54.309,188.320 55.908 L 187.479 58.816 188.313 61.908 C 188.771 63.609,189.270 65.900,189.421 67.000 C 189.571 68.100,190.021 69.810,190.420 70.800 C 191.410 73.258,192.000 79.122,192.000 86.517 C 192.000 91.755,192.118 92.966,192.773 94.449 C 193.274 95.584,193.712 98.031,194.019 101.400 C 194.280 104.260,194.832 107.744,195.246 109.142 C 195.661 110.540,195.999 112.250,195.998 112.942 C 195.997 113.634,196.300 115.049,196.672 116.087 C 197.612 118.710,197.010 119.800,194.163 120.628 C 193.013 120.962,191.971 121.498,191.848 121.818 C 191.726 122.138,191.344 122.400,191.000 122.400 C 190.656 122.400,189.346 123.459,188.088 124.753 C 186.829 126.047,185.350 127.238,184.800 127.400 C 184.250 127.562,183.521 127.939,183.180 128.237 C 182.839 128.535,181.786 129.052,180.841 129.386 C 179.895 129.719,178.766 130.444,178.332 130.996 C 177.897 131.548,177.285 132.000,176.971 132.000 C 176.657 132.000,176.398 132.315,176.395 132.700 C 176.393 133.085,175.961 134.150,175.437 135.067 C 174.913 135.984,174.270 137.380,174.010 138.170 C 173.444 139.884,172.893 140.217,170.000 140.596 C 168.790 140.754,167.260 141.207,166.600 141.603 C 165.940 141.998,164.196 142.505,162.725 142.730 C 161.254 142.955,159.544 143.502,158.925 143.945 C 158.306 144.388,157.035 144.949,156.100 145.191 C 155.165 145.433,154.400 145.808,154.400 146.024 C 154.400 146.240,153.905 146.638,153.300 146.909 C 152.069 147.459,147.200 152.157,147.200 152.795 C 147.200 153.021,146.767 153.582,146.237 154.043 C 145.707 154.503,145.159 155.493,145.019 156.242 C 144.878 156.990,144.433 157.917,144.029 158.302 C 143.625 158.686,143.087 159.983,142.833 161.184 C 142.580 162.385,142.097 163.672,141.759 164.045 C 141.422 164.418,140.892 165.937,140.581 167.420 C 140.271 168.904,139.737 170.428,139.395 170.806 C 139.053 171.184,138.588 172.638,138.363 174.037 C 138.138 175.436,137.620 177.125,137.212 177.791 C 136.804 178.456,136.346 179.900,136.194 181.000 C 136.042 182.100,135.509 183.900,135.010 185.000 C 134.511 186.100,133.978 187.988,133.825 189.196 C 133.672 190.403,133.217 191.933,132.813 192.596 C 132.409 193.258,131.892 195.021,131.664 196.513 C 131.436 198.006,130.899 199.806,130.471 200.513 C 130.042 201.221,129.567 202.880,129.414 204.200 C 129.261 205.520,128.788 207.200,128.362 207.934 C 127.936 208.667,127.423 210.425,127.223 211.839 C 127.023 213.253,126.502 214.993,126.066 215.705 C 125.629 216.417,125.147 218.080,124.994 219.400 C 124.841 220.720,124.372 222.400,123.951 223.134 C 123.494 223.932,122.960 226.183,122.624 228.734 C 122.314 231.080,121.867 233.507,121.631 234.126 C 121.026 235.706,121.095 239.670,121.773 242.342 C 122.088 243.584,122.545 246.642,122.788 249.137 C 123.043 251.759,123.479 254.054,123.821 254.577 C 124.147 255.073,124.615 257.082,124.862 259.040 C 125.110 260.998,125.646 263.267,126.055 264.082 C 126.463 264.897,126.980 266.851,127.203 268.425 C 127.442 270.106,127.923 271.685,128.371 272.255 C 128.791 272.788,129.258 273.983,129.409 274.912 C 129.561 275.840,130.031 276.977,130.454 277.439 C 131.474 278.549,132.798 282.234,132.810 283.994 C 132.829 286.801,134.314 292.400,135.038 292.400 C 135.332 292.400,135.781 292.805,136.036 293.300 C 136.291 293.795,136.861 294.596,137.301 295.081 C 137.981 295.828,138.094 296.465,138.041 299.281 C 137.931 305.198,138.288 306.189,141.687 309.400 C 145.047 312.574,147.014 315.217,147.389 317.059 C 147.530 317.751,147.995 318.634,148.423 319.021 C 148.850 319.407,149.200 319.941,149.200 320.207 C 149.200 320.473,149.733 321.361,150.384 322.180 C 151.035 323.000,151.690 324.053,151.838 324.520 C 151.986 324.987,152.534 325.705,153.054 326.114 C 154.000 326.858,154.000 326.860,154.000 336.082 C 154.000 344.397,154.074 345.428,154.751 346.553 C 155.429 347.678,155.544 349.292,155.925 363.011 C 156.288 376.037,156.465 378.680,157.159 381.411 C 157.604 383.165,158.142 386.850,158.355 389.600 C 158.583 392.568,158.986 395.073,159.346 395.764 C 159.679 396.404,160.068 397.619,160.211 398.464 L 160.470 400.000 185.596 400.000 L 210.721 400.000 211.006 397.500 C 211.162 396.125,211.531 394.280,211.826 393.400 C 212.121 392.520,212.489 389.851,212.642 387.469 C 212.996 381.994,213.493 381.150,215.845 382.034 C 217.238 382.558,217.483 382.867,218.200 385.009 C 218.640 386.324,219.306 387.850,219.680 388.400 C 220.054 388.950,220.488 390.210,220.645 391.200 C 220.802 392.190,221.276 393.469,221.698 394.043 C 222.166 394.678,222.552 396.045,222.688 397.543 L 222.911 400.000 250.810 400.000 L 278.709 400.000 278.959 398.300 C 279.097 397.365,279.379 394.800,279.586 392.600 C 279.794 390.400,280.252 387.790,280.605 386.800 C 281.380 384.624,281.965 375.282,281.985 364.754 C 281.998 358.113,282.081 357.205,282.745 356.354 C 283.999 354.748,284.137 353.683,284.169 345.342 C 284.203 336.435,284.258 336.234,287.000 334.910 C 287.660 334.591,288.830 333.986,289.600 333.566 C 290.370 333.145,291.394 332.801,291.876 332.801 C 293.164 332.800,296.496 329.742,297.236 327.882 C 297.585 327.003,298.170 326.065,298.536 325.798 C 298.901 325.530,299.200 325.097,299.200 324.835 C 299.200 324.574,299.830 324.096,300.600 323.774 C 301.370 323.452,302.000 323.020,302.000 322.813 C 302.000 322.607,302.765 322.098,303.700 321.684 C 304.635 321.269,305.647 320.631,305.949 320.265 C 306.251 319.899,306.722 319.600,306.996 319.600 C 307.396 319.600,310.864 316.357,313.489 313.527 C 314.215 312.745,314.883 312.042,316.025 310.860 C 316.588 310.277,317.174 309.468,317.327 309.062 C 317.479 308.656,317.963 308.230,318.402 308.115 C 318.841 308.001,319.200 307.649,319.200 307.334 C 319.200 307.019,319.611 306.365,320.113 305.881 C 320.615 305.396,321.347 304.493,321.740 303.873 C 322.495 302.681,323.044 301.998,324.738 300.145 C 325.314 299.515,326.059 298.533,326.393 297.963 C 328.164 294.938,328.678 294.179,329.500 293.382 C 329.995 292.901,330.400 292.318,330.400 292.085 C 330.400 291.852,330.824 291.153,331.342 290.531 C 331.860 289.909,332.505 288.724,332.774 287.897 C 333.044 287.070,333.586 286.222,333.979 286.011 C 334.373 285.801,334.811 285.046,334.953 284.333 C 335.096 283.621,335.585 282.642,336.040 282.157 C 336.495 281.673,337.036 280.527,337.242 279.611 C 337.448 278.695,337.968 277.463,338.397 276.873 C 340.158 274.455,340.325 248.258,338.613 243.044 C 337.810 240.599,337.633 239.477,337.200 234.085 C 336.972 231.243,336.552 228.680,336.204 228.007 C 335.872 227.367,335.399 224.988,335.152 222.721 C 334.905 220.455,334.366 217.815,333.954 216.855 C 333.542 215.896,333.008 213.466,332.766 211.455 C 332.517 209.389,332.071 207.514,331.740 207.143 C 331.418 206.782,330.910 204.865,330.613 202.883 C 330.315 200.902,329.794 198.857,329.455 198.339 C 329.116 197.822,328.633 196.076,328.382 194.459 C 328.131 192.843,327.602 190.953,327.206 190.260 C 326.809 189.567,326.291 187.849,326.052 186.442 C 325.814 185.036,325.339 183.575,324.996 183.196 C 324.653 182.817,324.192 181.387,323.972 180.018 C 323.751 178.649,323.219 177.049,322.789 176.464 C 322.359 175.879,321.854 174.590,321.667 173.600 C 321.480 172.610,320.939 171.170,320.465 170.400 C 319.991 169.630,319.602 168.717,319.601 168.371 C 319.601 168.025,319.065 167.035,318.411 166.171 C 317.757 165.307,317.217 164.336,317.211 164.014 C 317.198 163.336,316.822 162.904,312.557 158.659 C 308.209 154.332,307.835 154.000,307.317 154.000 C 307.066 154.000,306.340 153.562,305.704 153.026 C 305.067 152.490,304.077 151.934,303.503 151.790 C 302.929 151.646,302.154 151.192,301.782 150.781 C 301.410 150.369,300.228 149.741,299.155 149.385 C 298.082 149.029,297.069 148.513,296.902 148.238 C 296.736 147.964,295.748 147.505,294.708 147.220 C 293.667 146.934,292.608 146.451,292.355 146.146 C 292.102 145.841,290.944 145.315,289.781 144.977 C 288.618 144.639,287.449 144.099,287.182 143.778 C 286.915 143.456,285.962 143.076,285.066 142.932 C 282.752 142.562,281.769 141.412,281.426 138.673 C 281.270 137.423,280.980 136.400,280.781 136.400 C 280.583 136.400,280.134 135.846,279.784 135.169 C 278.588 132.857,274.467 129.864,271.800 129.371 C 269.920 129.024,266.631 126.431,266.075 124.858 C 265.675 123.728,263.093 120.800,262.495 120.800 C 262.298 120.800,261.341 120.276,260.369 119.636 C 259.190 118.861,257.815 118.376,256.247 118.183 C 252.745 117.754,252.226 117.067,252.546 113.286 C 252.686 111.632,252.800 109.586,252.800 108.740 C 252.800 107.201,255.259 104.000,256.442 104.000 C 257.116 104.000,261.492 99.376,261.811 98.326 C 261.965 97.817,262.429 97.031,262.841 96.579 C 263.253 96.128,263.775 94.788,264.000 93.603 C 264.224 92.417,264.708 90.989,265.074 90.430 C 265.591 89.642,265.800 87.977,266.007 83.007 C 266.238 77.475,266.406 76.300,267.237 74.400 C 268.657 71.156,268.739 51.480,267.342 49.200 C 266.871 48.430,266.359 47.029,266.205 46.086 C 266.051 45.143,265.492 43.857,264.962 43.228 C 264.433 42.599,264.000 41.868,264.000 41.603 C 264.000 40.924,259.048 36.000,258.364 35.999 C 258.054 35.998,257.214 35.640,256.497 35.203 C 255.781 34.766,254.431 34.305,253.497 34.179 C 250.095 33.719,250.152 33.750,246.600 30.468 C 246.160 30.062,245.182 29.518,244.426 29.260 C 243.670 29.001,242.750 28.517,242.381 28.183 C 242.012 27.849,240.685 27.409,239.430 27.205 C 238.176 27.001,236.577 26.522,235.875 26.142 C 234.596 25.447,223.502 24.894,222.000 25.450 M197.777 140.889 C 198.120 141.378,198.400 142.126,198.400 142.550 C 198.400 142.975,198.830 144.240,199.356 145.361 C 199.882 146.483,200.438 148.342,200.592 149.492 C 200.747 150.643,201.230 152.039,201.667 152.595 C 202.107 153.154,202.611 154.659,202.796 155.971 C 202.986 157.317,203.502 158.841,203.992 159.503 C 205.814 161.967,204.222 166.366,202.365 164.000 C 201.933 163.450,201.134 162.502,200.590 161.893 C 200.045 161.284,199.597 160.384,199.593 159.893 C 199.589 159.402,199.073 158.244,198.447 157.321 C 197.821 156.397,197.190 154.899,197.045 153.992 C 196.900 153.085,196.401 151.828,195.936 151.200 C 194.647 149.455,194.411 143.131,195.567 141.300 C 196.536 139.766,196.939 139.692,197.777 140.889 M193.161 162.846 C 194.832 164.647,197.280 167.223,198.600 168.568 C 202.246 172.284,205.200 175.718,205.200 176.240 C 205.200 176.497,205.650 177.003,206.200 177.363 C 206.750 177.724,207.200 178.216,207.200 178.456 C 207.200 178.697,207.740 179.509,208.400 180.261 C 209.060 181.013,209.600 181.893,209.600 182.217 C 209.600 182.540,210.050 183.197,210.600 183.675 C 211.150 184.153,211.600 184.847,211.600 185.217 C 211.600 185.587,212.140 186.569,212.800 187.400 C 213.460 188.231,214.000 189.210,214.000 189.577 C 214.000 189.944,214.450 190.855,215.000 191.600 C 215.550 192.345,216.003 193.235,216.006 193.578 C 216.020 194.961,216.733 195.428,217.152 194.327 C 217.371 193.751,217.895 193.038,218.317 192.740 C 218.740 192.443,219.200 191.840,219.340 191.400 C 219.480 190.960,220.045 190.060,220.595 189.400 C 221.145 188.740,222.091 187.586,222.698 186.837 C 223.704 185.592,230.940 178.352,233.108 176.421 C 233.608 175.976,234.598 175.313,235.308 174.947 C 236.019 174.580,236.835 173.948,237.123 173.540 C 237.410 173.133,237.985 172.800,238.400 172.800 C 238.815 172.800,239.404 172.444,239.709 172.008 C 240.015 171.572,240.970 170.922,241.832 170.563 C 242.694 170.204,243.519 169.720,243.665 169.488 C 243.922 169.079,245.479 168.200,249.200 166.364 C 250.190 165.875,251.181 165.230,251.401 164.929 C 251.622 164.628,252.476 164.273,253.298 164.139 C 257.057 163.529,257.170 168.719,253.413 169.424 C 252.665 169.564,251.749 170.015,251.378 170.425 C 251.007 170.834,250.050 171.383,249.252 171.643 C 248.453 171.903,247.291 172.540,246.669 173.058 C 246.047 173.576,245.296 174.000,245.000 174.000 C 244.704 174.000,243.927 174.450,243.273 175.000 C 242.619 175.550,241.884 176.000,241.640 176.000 C 241.395 176.000,240.815 176.437,240.351 176.971 C 239.886 177.505,238.964 178.166,238.301 178.441 C 237.639 178.715,236.678 179.358,236.166 179.870 C 235.655 180.381,234.970 180.800,234.645 180.800 C 234.320 180.800,233.940 181.160,233.800 181.600 C 233.660 182.040,233.381 182.400,233.179 182.400 C 232.701 182.400,226.800 188.301,226.800 188.779 C 226.800 188.981,226.480 189.248,226.088 189.372 C 225.697 189.496,225.172 190.138,224.923 190.799 C 224.673 191.460,224.212 192.000,223.898 192.000 C 223.579 192.000,223.117 192.700,222.852 193.586 C 222.590 194.458,222.035 195.411,221.617 195.703 C 221.198 195.996,220.733 196.768,220.582 197.418 C 220.431 198.068,219.897 199.230,219.396 200.000 C 218.894 200.770,218.359 202.300,218.206 203.400 C 218.053 204.500,217.589 206.210,217.175 207.200 C 216.661 208.428,216.290 210.815,216.006 214.707 C 215.778 217.845,215.322 221.175,214.992 222.107 C 214.621 223.156,214.243 226.615,214.000 231.200 C 213.548 239.693,213.348 241.504,212.587 244.000 C 212.284 244.994,211.859 249.384,211.638 253.800 C 211.399 258.577,210.988 262.686,210.619 264.000 C 210.268 265.250,209.829 269.397,209.603 273.600 C 209.161 281.823,208.996 283.298,208.191 286.200 C 207.876 287.335,207.458 292.093,207.224 297.200 C 206.963 302.900,206.585 307.007,206.193 308.400 C 205.800 309.797,205.425 313.883,205.166 319.600 C 204.942 324.550,204.471 330.670,204.120 333.200 C 203.769 335.730,203.283 342.609,203.041 348.487 C 202.671 357.443,202.494 359.279,201.947 359.826 C 201.082 360.689,199.729 360.005,199.305 358.488 C 198.403 355.269,199.496 315.324,200.582 311.800 C 200.997 310.453,201.328 306.707,201.595 300.331 C 201.872 293.725,202.231 289.733,202.785 287.131 C 203.292 284.748,203.721 280.437,203.973 275.200 C 204.225 269.961,204.592 266.278,204.989 265.000 C 205.369 263.774,205.764 260.057,206.007 255.400 C 206.427 247.349,206.520 246.557,207.418 243.400 C 207.731 242.299,208.163 237.871,208.379 233.548 C 208.637 228.382,208.983 225.098,209.392 223.948 C 209.772 222.877,210.164 219.565,210.404 215.400 C 210.818 208.230,211.335 203.950,211.999 202.202 C 212.752 200.223,212.476 196.757,211.398 194.632 C 210.849 193.550,210.400 192.357,210.400 191.981 C 210.400 191.605,210.105 191.053,209.745 190.755 C 209.385 190.456,208.762 189.444,208.360 188.506 C 207.957 187.568,207.450 186.800,207.233 186.800 C 207.015 186.800,206.479 185.990,206.041 185.000 C 205.603 184.010,205.084 183.200,204.887 183.200 C 204.690 183.200,204.306 182.711,204.034 182.114 C 203.762 181.517,203.184 180.662,202.750 180.214 C 202.316 179.766,201.025 178.387,199.881 177.148 C 198.736 175.909,196.270 173.285,194.400 171.317 C 185.963 162.438,185.183 161.274,186.670 159.788 C 188.043 158.415,189.832 159.258,193.161 162.846 M162.284 228.004 C 163.117 229.651,163.017 273.512,162.177 274.711 C 160.128 277.637,158.059 272.892,157.376 263.705 C 156.987 258.461,156.713 256.656,156.232 256.175 C 155.244 255.187,155.282 253.837,156.329 252.666 C 157.514 251.342,157.240 247.241,155.857 245.596 C 154.439 243.909,154.485 240.747,155.944 239.565 C 156.453 239.153,156.973 238.024,157.245 236.739 C 157.494 235.563,158.012 233.970,158.395 233.200 C 158.778 232.430,159.217 231.109,159.371 230.264 C 159.991 226.849,161.218 225.897,162.284 228.004 M294.740 240.992 C 295.424 241.772,295.991 242.986,296.158 244.027 C 296.311 244.982,296.788 246.333,297.218 247.030 C 297.649 247.726,298.115 249.127,298.254 250.143 C 298.393 251.159,298.933 252.567,299.454 253.273 C 299.974 253.978,300.400 254.946,300.400 255.423 C 300.400 255.900,300.940 256.969,301.600 257.800 C 303.204 259.818,303.206 261.681,301.607 264.040 C 300.508 265.662,300.414 266.077,300.407 269.342 C 300.401 272.531,300.300 273.003,299.400 274.073 C 298.850 274.727,298.400 275.504,298.400 275.800 C 298.400 276.096,297.975 276.847,297.455 277.469 C 296.935 278.091,296.374 279.050,296.209 279.600 C 296.043 280.150,295.590 280.960,295.201 281.400 C 294.812 281.840,294.193 282.794,293.826 283.521 C 293.459 284.247,292.898 284.941,292.579 285.063 C 292.261 285.186,292.000 285.525,292.000 285.818 C 292.000 286.111,291.470 286.931,290.821 287.641 C 290.173 288.351,289.441 289.419,289.194 290.014 C 288.948 290.609,288.303 291.298,287.762 291.545 C 287.220 291.791,286.673 292.265,286.546 292.597 C 286.203 293.490,284.897 293.328,284.360 292.325 C 283.757 291.199,284.186 284.018,285.017 281.328 C 285.344 280.267,285.799 276.340,286.027 272.600 C 286.256 268.860,286.719 264.810,287.055 263.600 C 287.391 262.390,287.831 259.690,288.031 257.600 C 288.566 252.035,289.168 248.321,289.624 247.771 C 289.844 247.506,290.194 245.803,290.401 243.988 C 290.959 239.099,292.278 238.189,294.740 240.992 " stroke="none" fill="#040404" fill-rule="evenodd"></path><path id="path1" d="M258.800 0.350 C 258.800 0.840,256.971 4.609,255.573 7.000 C 254.930 8.100,253.962 9.928,253.423 11.063 C 252.884 12.198,252.258 13.240,252.033 13.380 C 251.807 13.519,251.255 14.391,250.805 15.317 C 250.356 16.242,249.367 17.990,248.608 19.200 C 247.849 20.410,246.750 22.347,246.165 23.505 C 244.831 26.146,243.787 26.511,241.688 25.073 C 240.575 24.310,239.443 23.981,237.200 23.769 C 235.550 23.613,233.502 23.241,232.650 22.942 C 230.620 22.232,225.411 22.249,223.171 22.972 C 222.197 23.287,220.010 23.662,218.312 23.805 C 216.170 23.986,214.923 24.302,214.243 24.837 C 213.704 25.262,212.303 25.790,211.131 26.011 C 209.959 26.233,208.730 26.740,208.400 27.139 C 208.070 27.538,207.038 28.082,206.107 28.347 C 205.175 28.611,204.237 29.158,204.021 29.561 C 203.805 29.964,203.096 30.401,202.446 30.531 C 201.765 30.667,201.160 31.096,201.018 31.544 C 200.882 31.971,200.350 32.426,199.834 32.556 C 198.838 32.806,192.800 38.508,192.800 39.199 C 192.800 39.423,192.260 40.172,191.600 40.863 C 190.940 41.554,190.400 42.386,190.400 42.713 C 190.400 43.041,189.976 43.701,189.458 44.181 C 188.940 44.661,188.387 45.741,188.230 46.581 C 188.072 47.422,187.585 48.594,187.146 49.187 C 185.284 51.706,185.268 66.925,187.126 68.936 C 187.761 69.623,187.983 70.618,188.209 73.800 C 188.365 76.000,188.740 78.520,189.042 79.400 C 189.356 80.314,189.663 83.317,189.758 86.400 C 189.850 89.370,190.056 93.691,190.215 96.003 L 190.505 100.206 188.265 103.003 C 184.896 107.209,182.930 109.845,180.705 113.140 C 180.207 113.878,179.517 114.791,179.171 115.170 C 178.824 115.549,177.654 117.104,176.571 118.626 C 175.487 120.148,174.330 121.691,174.000 122.056 C 173.670 122.421,172.985 123.322,172.479 124.060 C 171.972 124.797,170.664 126.570,169.572 128.000 C 168.481 129.430,167.282 131.050,166.908 131.600 C 166.534 132.150,165.471 133.503,164.545 134.607 C 163.619 135.711,162.734 137.123,162.578 137.746 C 162.390 138.496,161.911 139.012,161.163 139.273 C 160.541 139.490,159.928 139.996,159.801 140.397 C 159.650 140.874,158.877 141.294,157.578 141.605 C 156.483 141.868,155.365 142.395,155.094 142.777 C 154.822 143.158,154.113 143.591,153.517 143.739 C 152.921 143.886,151.956 144.449,151.372 144.991 C 150.789 145.532,149.961 146.086,149.532 146.221 C 149.104 146.357,148.589 146.903,148.387 147.434 C 148.185 147.965,147.750 148.400,147.420 148.400 C 147.090 148.400,146.546 148.930,146.211 149.578 C 145.876 150.227,145.151 151.243,144.601 151.837 C 144.050 152.431,143.600 153.328,143.600 153.831 C 143.600 154.377,143.295 154.843,142.844 154.986 C 142.355 155.141,141.924 155.879,141.622 157.078 C 141.366 158.097,140.815 159.364,140.398 159.893 C 139.981 160.423,139.525 161.699,139.384 162.728 C 139.244 163.758,138.780 165.094,138.354 165.697 C 137.929 166.300,137.404 167.724,137.189 168.861 C 136.952 170.108,136.492 171.140,136.029 171.465 C 135.607 171.761,135.046 172.656,134.782 173.455 C 134.518 174.253,133.560 175.663,132.651 176.588 C 131.743 177.513,130.493 178.974,129.874 179.835 C 127.188 183.568,123.991 187.876,123.220 188.800 C 121.863 190.426,120.530 192.144,118.842 194.440 C 116.925 197.049,116.412 197.719,114.714 199.842 C 113.991 200.745,112.860 202.239,112.200 203.163 C 111.540 204.086,110.100 205.974,109.000 207.359 C 107.900 208.743,105.920 211.353,104.600 213.159 C 103.280 214.965,101.300 217.582,100.200 218.975 C 99.100 220.368,97.570 222.343,96.800 223.363 C 96.030 224.384,94.450 226.405,93.290 227.855 C 92.129 229.305,90.979 230.876,90.735 231.346 C 90.491 231.816,89.544 233.100,88.631 234.200 C 87.718 235.300,86.666 236.650,86.292 237.200 C 85.680 238.100,82.873 241.788,80.810 244.400 C 78.124 247.801,73.695 253.530,73.193 254.252 C 71.942 256.050,68.508 260.575,66.400 263.202 C 65.190 264.711,63.210 267.319,62.000 268.999 C 60.790 270.679,59.186 272.807,58.436 273.727 C 57.019 275.465,51.848 282.319,50.800 283.848 C 50.470 284.329,49.120 286.111,47.800 287.807 C 45.335 290.974,44.700 291.818,41.600 296.043 C 40.610 297.393,39.331 299.060,38.758 299.748 C 38.184 300.437,36.170 303.070,34.281 305.600 C 30.418 310.774,29.281 312.280,26.426 316.000 C 25.329 317.430,23.929 319.279,23.316 320.110 C 22.702 320.940,21.660 322.324,21.000 323.186 C 20.340 324.047,19.350 325.402,18.800 326.196 C 18.250 326.990,17.060 328.576,16.155 329.720 C 15.250 330.864,13.900 332.647,13.155 333.682 C 11.443 336.060,6.977 341.975,5.400 343.953 C 4.740 344.781,3.840 345.958,3.400 346.570 C 1.574 349.107,1.114 349.600,0.571 349.600 C 0.082 349.600,0.000 353.236,0.000 374.800 L 0.000 400.000 78.800 400.000 L 157.600 400.000 157.600 398.864 C 157.600 396.789,156.736 391.026,156.165 389.289 C 155.855 388.348,155.330 384.095,154.998 379.836 C 154.665 375.578,154.219 371.218,154.005 370.147 C 153.792 369.076,153.509 363.790,153.377 358.400 C 153.196 351.036,152.933 347.521,152.319 344.260 C 151.498 339.899,151.492 339.012,152.236 330.967 C 152.478 328.353,152.425 328.054,151.549 327.098 C 149.914 325.313,148.801 323.700,148.184 322.224 C 147.857 321.441,147.426 320.800,147.227 320.800 C 147.027 320.800,146.570 319.914,146.210 318.831 C 145.850 317.748,145.296 316.646,144.978 316.382 C 144.660 316.118,144.400 315.640,144.400 315.319 C 144.400 314.757,142.641 312.933,139.271 310.000 C 138.387 309.230,137.545 308.156,137.402 307.614 C 137.259 307.072,136.795 305.866,136.371 304.936 C 135.801 303.684,135.600 302.348,135.600 299.802 C 135.600 296.422,134.925 294.000,133.983 294.000 C 133.765 294.000,133.282 293.325,132.909 292.500 C 132.537 291.675,131.972 290.685,131.654 290.300 C 131.273 289.839,130.990 288.131,130.822 285.283 C 130.594 281.414,130.455 280.819,129.484 279.545 C 128.888 278.764,128.400 277.960,128.400 277.759 C 128.400 277.558,127.972 276.585,127.448 275.597 C 126.925 274.609,126.365 272.990,126.204 272.000 C 126.043 271.010,125.576 269.455,125.166 268.545 C 124.757 267.635,124.217 265.565,123.967 263.945 C 123.716 262.325,123.257 260.506,122.946 259.901 C 122.635 259.297,122.111 256.867,121.781 254.501 C 121.451 252.136,120.870 249.390,120.491 248.400 C 119.481 245.770,119.465 230.011,120.470 228.178 C 120.838 227.507,121.426 225.445,121.777 223.598 C 122.127 221.750,122.655 219.870,122.949 219.419 C 123.244 218.969,123.701 217.358,123.964 215.841 C 124.228 214.323,124.770 212.433,125.169 211.641 C 125.568 210.848,126.021 209.300,126.175 208.200 C 126.329 207.100,126.791 205.480,127.202 204.600 C 127.613 203.720,128.155 201.840,128.407 200.422 C 128.658 199.004,129.186 197.204,129.579 196.422 C 129.973 195.640,130.421 194.100,130.575 193.000 C 130.729 191.900,131.188 190.280,131.595 189.400 C 132.002 188.520,132.546 186.720,132.804 185.400 C 133.062 184.080,133.608 182.280,134.017 181.400 C 134.425 180.520,134.948 178.849,135.178 177.687 C 135.409 176.525,135.936 174.905,136.350 174.087 C 136.764 173.269,137.236 171.970,137.400 171.200 C 137.564 170.430,138.020 169.162,138.415 168.383 C 138.809 167.603,139.403 165.983,139.735 164.783 C 140.389 162.419,142.188 157.768,142.823 156.800 C 143.040 156.470,143.528 155.562,143.909 154.783 C 145.167 152.202,150.637 146.000,151.653 146.000 C 151.813 146.000,152.181 145.767,152.471 145.482 C 153.185 144.784,158.254 142.242,160.217 141.598 C 161.087 141.312,162.168 140.839,162.619 140.547 C 163.069 140.254,164.824 139.799,166.520 139.535 C 170.840 138.864,172.423 137.894,173.019 135.556 C 173.277 134.541,173.829 133.330,174.244 132.865 C 174.660 132.399,175.540 131.371,176.200 130.580 C 177.840 128.614,181.238 126.400,182.615 126.400 C 183.441 126.400,184.243 125.887,185.583 124.500 C 188.310 121.678,190.537 120.041,192.607 119.336 C 195.130 118.476,195.792 115.972,194.054 113.861 C 193.480 113.165,192.802 108.986,192.783 106.027 C 192.773 104.582,192.609 102.680,192.417 101.800 C 191.164 96.042,190.823 93.040,190.667 86.400 C 190.538 80.942,190.331 78.630,189.878 77.590 C 189.541 76.814,189.080 74.532,188.856 72.518 C 188.620 70.406,188.056 67.956,187.523 66.729 C 186.305 63.920,186.139 53.895,187.275 51.689 C 187.646 50.968,188.233 49.402,188.580 48.209 C 188.927 47.017,189.391 45.929,189.611 45.793 C 189.832 45.657,190.277 44.912,190.601 44.137 C 190.924 43.362,191.597 42.232,192.095 41.626 C 192.593 41.019,193.630 39.751,194.400 38.808 C 195.545 37.405,198.377 34.823,201.943 31.929 C 203.577 30.603,211.132 26.864,213.585 26.167 C 214.583 25.884,216.155 25.375,217.077 25.036 C 221.736 23.324,235.044 23.409,239.038 25.176 C 239.964 25.585,241.730 26.214,242.961 26.571 C 244.193 26.929,245.200 27.378,245.200 27.568 C 245.200 27.758,245.632 28.022,246.159 28.154 C 246.996 28.364,249.096 29.844,251.276 31.758 C 251.648 32.085,253.228 32.529,254.787 32.745 C 258.822 33.304,263.721 36.794,265.283 40.221 C 265.528 40.760,265.865 41.200,266.031 41.200 C 266.198 41.200,266.656 42.055,267.050 43.100 C 267.444 44.145,268.075 45.540,268.452 46.200 C 268.830 46.860,269.259 48.300,269.407 49.400 C 269.555 50.500,269.958 52.480,270.301 53.800 C 271.165 57.114,271.180 64.600,270.330 68.200 C 269.967 69.740,269.546 72.302,269.395 73.894 C 269.244 75.485,268.778 77.459,268.360 78.278 C 267.774 79.428,267.600 80.624,267.600 83.508 C 267.600 88.195,266.938 92.638,266.007 94.200 C 265.613 94.860,265.159 95.850,264.998 96.400 C 264.232 99.010,261.180 102.733,256.914 106.261 C 254.135 108.559,253.140 115.150,255.500 115.633 C 256.212 115.779,257.021 116.083,257.298 116.310 C 257.574 116.536,258.605 116.937,259.589 117.200 C 260.573 117.463,261.923 118.106,262.589 118.628 C 265.009 120.526,267.191 122.610,267.195 123.027 C 267.210 124.437,272.883 128.400,274.886 128.400 C 277.360 128.400,282.800 134.654,282.800 137.499 C 282.800 139.408,284.315 141.038,286.638 141.626 C 287.497 141.844,289.100 142.448,290.200 142.968 C 291.300 143.489,293.460 144.487,295.000 145.187 C 296.540 145.887,298.250 146.710,298.800 147.015 C 299.350 147.321,300.700 148.033,301.800 148.598 C 302.900 149.163,304.435 150.025,305.211 150.513 C 305.987 151.001,307.227 151.760,307.966 152.200 C 311.476 154.289,318.400 161.181,318.400 162.586 C 318.400 162.870,318.699 163.349,319.065 163.651 C 319.430 163.953,320.141 165.128,320.643 166.263 C 321.146 167.398,321.727 168.431,321.933 168.559 C 322.140 168.687,322.435 169.468,322.588 170.296 C 322.742 171.123,323.207 172.352,323.621 173.027 C 324.036 173.702,324.628 175.339,324.938 176.665 C 325.247 177.991,325.776 179.509,326.113 180.038 C 326.451 180.567,326.944 182.073,327.209 183.384 C 327.474 184.695,327.927 186.135,328.215 186.584 C 328.502 187.033,328.956 188.570,329.224 190.000 C 329.491 191.430,330.025 193.320,330.410 194.200 C 330.795 195.080,331.334 197.147,331.607 198.793 C 331.880 200.440,332.343 202.151,332.635 202.597 C 332.926 203.042,333.430 205.025,333.754 207.003 C 334.077 208.982,334.614 211.242,334.946 212.027 C 335.278 212.811,335.768 215.061,336.035 217.027 C 336.301 218.992,336.759 221.078,337.051 221.663 C 337.343 222.248,337.866 225.038,338.212 227.863 C 338.559 230.688,339.101 233.900,339.417 235.000 C 339.733 236.100,340.261 239.970,340.591 243.600 C 340.921 247.230,341.384 250.920,341.620 251.800 C 342.414 254.757,342.550 269.082,341.809 271.600 C 341.453 272.810,340.897 274.970,340.573 276.400 C 340.248 277.830,339.627 279.488,339.192 280.084 C 338.756 280.680,338.400 281.420,338.400 281.728 C 338.400 282.036,337.939 282.968,337.375 283.799 C 336.811 284.630,336.071 286.005,335.731 286.855 C 335.391 287.705,334.972 288.400,334.800 288.400 C 334.628 288.400,334.204 289.107,333.858 289.972 C 333.512 290.837,332.997 291.692,332.714 291.872 C 332.431 292.052,331.881 292.830,331.491 293.600 C 330.492 295.570,328.419 298.400,327.974 298.400 C 327.768 298.400,327.600 298.653,327.600 298.962 C 327.600 299.271,327.015 300.257,326.300 301.153 C 325.585 302.048,324.460 303.514,323.800 304.410 C 323.140 305.305,321.756 306.975,320.725 308.119 C 319.694 309.264,317.729 311.531,316.357 313.157 C 312.546 317.678,309.115 320.766,305.838 322.626 C 305.198 322.988,304.319 323.617,303.884 324.023 C 303.448 324.428,302.584 324.872,301.964 325.008 C 301.283 325.157,300.732 325.601,300.572 326.128 C 300.427 326.608,299.986 327.360,299.592 327.800 C 299.199 328.240,298.606 329.258,298.275 330.061 C 297.944 330.865,297.313 331.637,296.873 331.777 C 296.434 331.916,295.977 332.282,295.859 332.589 C 295.606 333.249,290.056 335.997,288.958 336.006 C 286.952 336.022,286.776 336.769,286.678 345.656 C 286.622 350.710,286.455 352.852,286.083 353.300 C 285.010 354.593,284.724 356.846,284.577 365.200 C 284.493 369.930,284.242 374.790,284.019 376.000 C 283.610 378.212,283.171 381.728,282.414 388.844 C 282.190 390.959,281.758 393.299,281.456 394.044 C 281.153 394.790,280.790 396.435,280.649 397.700 L 280.393 400.000 340.197 400.000 L 400.000 400.000 400.000 200.000 L 400.000 0.000 329.400 0.000 C 289.289 0.000,258.800 0.151,258.800 0.350 M196.428 145.724 C 196.411 147.177,196.550 147.955,196.800 147.800 C 197.280 147.503,197.280 145.317,196.800 144.200 C 196.553 143.626,196.448 144.056,196.428 145.724 M198.428 151.300 C 198.444 152.235,198.593 153.350,198.761 153.779 C 199.227 154.970,199.646 153.026,199.338 151.100 C 199.012 149.063,198.393 149.199,198.428 151.300 M189.413 162.779 C 189.061 163.348,189.510 164.000,190.253 164.000 C 190.603 164.000,190.804 163.719,190.729 163.333 C 190.574 162.530,189.775 162.193,189.413 162.779 M191.775 164.927 C 191.432 165.813,192.211 166.749,192.801 166.159 C 193.070 165.890,193.013 165.499,192.630 164.979 C 192.084 164.236,192.044 164.234,191.775 164.927 M193.802 167.196 C 193.508 167.673,194.263 168.800,194.877 168.800 C 195.408 168.800,195.101 167.096,194.537 166.910 C 194.282 166.826,193.951 166.955,193.802 167.196 M250.295 167.477 C 249.327 167.729,249.832 168.400,250.991 168.400 C 252.280 168.400,253.242 167.991,252.974 167.558 C 252.746 167.189,251.537 167.153,250.295 167.477 M195.836 169.541 C 195.720 169.729,195.878 170.224,196.186 170.641 C 196.847 171.536,197.871 170.884,197.466 169.827 C 197.208 169.157,196.185 168.977,195.836 169.541 M246.400 170.000 C 246.400 170.220,246.850 170.400,247.400 170.400 C 247.950 170.400,248.400 170.220,248.400 170.000 C 248.400 169.780,247.950 169.600,247.400 169.600 C 246.850 169.600,246.400 169.780,246.400 170.000 M198.165 171.748 C 197.865 172.530,198.274 173.200,199.051 173.200 C 199.444 173.200,199.611 172.896,199.528 172.331 C 199.373 171.277,198.490 170.899,198.165 171.748 M242.857 171.956 C 242.078 172.450,242.984 172.922,244.056 172.582 C 244.724 172.370,244.787 172.238,244.353 171.962 C 243.667 171.528,243.534 171.528,242.857 171.956 M200.176 174.038 C 199.747 174.733,201.088 175.872,201.660 175.300 C 202.015 174.945,202.004 174.686,201.614 174.217 C 201.011 173.490,200.551 173.433,200.176 174.038 M239.067 174.267 C 238.505 174.829,238.845 175.055,240.000 174.885 C 240.660 174.788,241.200 174.550,241.200 174.355 C 241.200 173.943,239.462 173.872,239.067 174.267 M202.600 176.399 C 202.465 176.619,202.617 177.175,202.939 177.634 L 203.524 178.470 203.788 177.638 C 204.194 176.360,203.240 175.364,202.600 176.399 M236.184 176.427 C 235.815 177.022,236.242 177.346,237.008 177.052 C 237.362 176.917,237.539 176.624,237.402 176.403 C 237.078 175.878,236.516 175.889,236.184 176.427 M205.218 180.100 C 205.208 180.925,205.369 181.600,205.576 181.600 C 206.242 181.600,206.301 181.029,205.762 179.800 L 205.236 178.600 205.218 180.100 M207.391 182.881 C 207.051 183.764,207.546 184.614,208.087 184.073 C 208.348 183.812,208.342 183.426,208.068 182.939 C 207.686 182.258,207.633 182.253,207.391 182.881 M209.600 187.176 C 209.600 187.629,209.780 188.000,210.000 188.000 C 210.220 188.000,210.400 187.741,210.400 187.424 C 210.400 187.107,210.220 186.736,210.000 186.600 C 209.780 186.464,209.600 186.723,209.600 187.176 M212.101 191.000 C 212.105 191.880,212.187 192.193,212.283 191.695 C 212.379 191.198,212.375 190.478,212.275 190.095 C 212.175 189.713,212.096 190.120,212.101 191.000 M214.252 195.614 C 213.732 197.232,213.209 211.669,213.642 212.478 C 214.305 213.718,214.600 212.893,215.149 208.261 C 215.405 206.095,215.955 203.575,216.371 202.661 C 217.793 199.537,217.841 198.159,216.549 197.540 C 215.930 197.243,215.202 196.556,214.932 196.014 C 214.576 195.299,214.389 195.189,214.252 195.614 M211.823 217.500 C 211.350 224.497,211.365 231.525,211.855 232.015 C 212.337 232.497,212.530 230.603,213.039 220.356 C 213.406 212.964,212.304 210.376,211.823 217.500 M160.800 234.404 C 160.800 235.195,160.389 236.037,159.600 236.863 C 158.940 237.554,158.400 238.368,158.400 238.673 C 158.400 238.977,157.937 240.140,157.371 241.257 C 156.359 243.255,156.354 243.298,157.111 244.003 C 158.325 245.134,158.941 249.089,158.362 252.032 C 157.787 254.954,158.443 259.549,159.672 261.211 C 160.272 262.023,160.510 263.296,160.762 267.025 C 160.994 270.469,161.100 266.422,161.142 252.500 C 161.174 241.885,161.110 233.200,161.000 233.200 C 160.890 233.200,160.800 233.742,160.800 234.404 M209.861 234.650 C 209.378 236.861,209.050 254.000,209.491 254.000 C 210.174 254.000,210.368 252.221,210.652 243.374 C 210.912 235.278,210.563 231.435,209.861 234.650 M291.628 247.646 C 291.363 250.287,290.884 253.293,290.563 254.324 C 290.242 255.356,289.709 259.080,289.379 262.600 C 289.049 266.120,288.519 270.080,288.200 271.400 C 287.882 272.720,287.424 276.762,287.183 280.383 C 286.942 284.003,286.667 287.092,286.571 287.247 C 286.278 287.722,286.855 288.800,287.403 288.800 C 287.688 288.800,288.289 288.215,288.738 287.500 C 289.188 286.785,290.106 285.480,290.778 284.600 C 291.451 283.720,292.367 282.241,292.814 281.312 C 293.261 280.384,293.865 279.484,294.157 279.312 C 294.448 279.141,294.902 278.339,295.164 277.532 C 295.426 276.725,295.893 275.855,296.200 275.600 C 297.421 274.587,298.450 271.686,298.356 269.524 C 298.253 267.147,299.310 263.454,300.459 262.174 C 301.397 261.129,301.396 261.125,300.200 259.362 C 299.650 258.551,299.200 257.581,299.200 257.206 C 299.200 256.831,298.858 256.214,298.440 255.836 C 298.021 255.457,297.555 254.484,297.403 253.674 C 297.252 252.863,296.710 251.300,296.200 250.200 C 295.690 249.100,295.153 247.446,295.005 246.524 C 294.806 245.273,294.404 244.593,293.423 243.845 L 292.109 242.842 291.628 247.646 M207.382 258.680 C 206.891 265.801,206.934 274.902,207.459 275.082 C 208.000 275.267,208.441 269.274,208.537 260.438 C 208.616 253.187,207.842 252.008,207.382 258.680 M205.448 277.105 C 205.032 278.979,204.661 295.401,205.007 296.632 C 205.327 297.772,205.342 297.757,205.636 296.000 C 206.627 290.075,206.453 272.576,205.448 277.105 M203.061 301.835 C 202.682 306.315,202.741 320.316,203.139 320.562 C 203.854 321.004,204.354 300.377,203.655 299.275 C 203.451 298.954,203.220 299.950,203.061 301.835 M200.867 342.500 C 200.913 352.635,201.025 356.057,201.218 353.200 C 201.673 346.476,201.659 327.600,201.200 327.600 C 200.939 327.600,200.823 332.789,200.867 342.500 M214.258 387.900 C 214.119 389.165,213.886 392.405,213.741 395.100 L 213.477 400.000 217.338 400.000 C 221.565 400.000,221.693 399.910,220.596 397.712 C 220.263 397.045,219.803 395.480,219.572 394.233 C 219.342 392.987,218.815 391.389,218.403 390.683 C 217.990 389.977,217.439 388.545,217.178 387.500 C 216.410 384.418,214.615 384.664,214.258 387.900 " stroke="none" fill="#cb1c0b" fill-rule="evenodd"></path><path id="path2" d="M0.000 174.800 C 0.000 325.961,0.077 349.600,0.571 349.600 C 1.114 349.600,1.574 349.107,3.400 346.570 C 3.840 345.958,4.740 344.781,5.400 343.953 C 6.977 341.975,11.443 336.060,13.155 333.682 C 13.900 332.647,15.250 330.864,16.155 329.720 C 17.060 328.576,18.250 326.990,18.800 326.196 C 19.350 325.402,20.340 324.047,21.000 323.186 C 21.660 322.324,22.702 320.940,23.316 320.110 C 23.929 319.279,25.329 317.430,26.426 316.000 C 29.281 312.280,30.418 310.774,34.281 305.600 C 36.170 303.070,38.184 300.437,38.758 299.748 C 39.331 299.060,40.610 297.393,41.600 296.043 C 44.700 291.818,45.335 290.974,47.800 287.807 C 49.120 286.111,50.470 284.329,50.800 283.848 C 51.848 282.319,57.019 275.465,58.436 273.727 C 59.186 272.807,60.790 270.679,62.000 268.999 C 63.210 267.319,65.190 264.711,66.400 263.202 C 68.508 260.575,71.942 256.050,73.193 254.252 C 73.695 253.530,78.124 247.801,80.810 244.400 C 82.873 241.788,85.680 238.100,86.292 237.200 C 86.666 236.650,87.718 235.300,88.631 234.200 C 89.544 233.100,90.491 231.816,90.735 231.346 C 90.979 230.876,92.129 229.305,93.290 227.855 C 94.450 226.405,96.030 224.384,96.800 223.363 C 97.570 222.343,99.100 220.368,100.200 218.975 C 101.300 217.582,103.280 214.965,104.600 213.159 C 105.920 211.353,107.900 208.743,109.000 207.359 C 110.100 205.974,111.540 204.086,112.200 203.163 C 112.860 202.239,113.991 200.745,114.714 199.842 C 116.412 197.719,116.925 197.049,118.842 194.440 C 120.530 192.144,121.863 190.426,123.220 188.800 C 123.991 187.876,127.188 183.568,129.874 179.835 C 130.493 178.974,131.743 177.513,132.651 176.588 C 133.560 175.663,134.518 174.253,134.782 173.455 C 135.046 172.656,135.607 171.761,136.029 171.465 C 136.492 171.140,136.952 170.108,137.189 168.861 C 137.404 167.724,137.929 166.300,138.354 165.697 C 138.780 165.094,139.244 163.758,139.384 162.728 C 139.525 161.699,139.981 160.423,140.398 159.893 C 140.815 159.364,141.366 158.097,141.622 157.078 C 141.924 155.879,142.355 155.141,142.844 154.986 C 143.295 154.843,143.600 154.377,143.600 153.831 C 143.600 153.328,144.050 152.431,144.601 151.837 C 145.151 151.243,145.876 150.227,146.211 149.578 C 146.546 148.930,147.090 148.400,147.420 148.400 C 147.750 148.400,148.185 147.965,148.387 147.434 C 148.589 146.903,149.104 146.357,149.532 146.221 C 149.961 146.086,150.789 145.532,151.372 144.991 C 151.956 144.449,152.921 143.886,153.517 143.739 C 154.113 143.591,154.822 143.158,155.094 142.777 C 155.365 142.395,156.483 141.868,157.578 141.605 C 158.877 141.294,159.650 140.874,159.801 140.397 C 159.928 139.996,160.541 139.490,161.163 139.273 C 161.911 139.012,162.390 138.496,162.578 137.746 C 162.734 137.123,163.619 135.711,164.545 134.607 C 165.471 133.503,166.534 132.150,166.908 131.600 C 167.282 131.050,168.481 129.430,169.572 128.000 C 170.664 126.570,171.972 124.797,172.479 124.060 C 172.985 123.322,173.670 122.421,174.000 122.056 C 174.330 121.691,175.487 120.148,176.571 118.626 C 177.654 117.104,178.824 115.549,179.171 115.170 C 179.517 114.791,180.207 113.878,180.705 113.140 C 182.930 109.845,184.896 107.209,188.265 103.003 L 190.505 100.206 190.215 96.003 C 190.056 93.691,189.850 89.370,189.758 86.400 C 189.663 83.317,189.356 80.314,189.042 79.400 C 188.740 78.520,188.365 76.000,188.209 73.800 C 187.983 70.618,187.761 69.623,187.126 68.936 C 185.268 66.925,185.284 51.706,187.146 49.187 C 187.585 48.594,188.072 47.422,188.230 46.581 C 188.387 45.741,188.940 44.661,189.458 44.181 C 189.976 43.701,190.400 43.041,190.400 42.713 C 190.400 42.386,190.940 41.554,191.600 40.863 C 192.260 40.172,192.800 39.423,192.800 39.199 C 192.800 38.508,198.838 32.806,199.834 32.556 C 200.350 32.426,200.882 31.971,201.018 31.544 C 201.160 31.096,201.765 30.667,202.446 30.531 C 203.096 30.401,203.805 29.964,204.021 29.561 C 204.237 29.158,205.175 28.611,206.107 28.347 C 207.038 28.082,208.070 27.538,208.400 27.139 C 208.730 26.740,209.959 26.233,211.131 26.011 C 212.303 25.790,213.704 25.262,214.243 24.837 C 214.923 24.302,216.170 23.986,218.312 23.805 C 220.010 23.662,222.197 23.287,223.171 22.972 C 225.411 22.249,230.620 22.232,232.650 22.942 C 233.502 23.241,235.550 23.613,237.200 23.769 C 239.443 23.981,240.575 24.310,241.688 25.073 C 243.787 26.511,244.831 26.146,246.165 23.505 C 246.750 22.347,247.849 20.410,248.608 19.200 C 249.367 17.990,250.356 16.242,250.805 15.317 C 251.255 14.391,251.807 13.519,252.033 13.380 C 252.258 13.240,252.884 12.198,253.423 11.063 C 253.962 9.928,254.930 8.100,255.573 7.000 C 256.971 4.609,258.800 0.840,258.800 0.350 C 258.800 0.151,203.140 0.000,129.400 0.000 L 0.000 0.000 0.000 174.800 " stroke="none" fill="#ec3b13" fill-rule="evenodd"></path><path id="path3" d="M221.895 24.772 C 220.627 24.950,218.827 25.378,217.895 25.723 C 216.963 26.069,215.390 26.549,214.400 26.792 C 212.700 27.208,209.417 28.583,207.200 29.808 C 206.650 30.112,205.480 30.756,204.600 31.238 C 192.384 37.937,184.266 54.510,188.009 65.110 C 188.453 66.369,189.181 69.455,189.626 71.966 C 190.070 74.477,190.557 76.727,190.707 76.966 C 190.857 77.205,191.100 81.090,191.247 85.600 C 191.456 92.028,191.697 94.493,192.360 97.008 C 192.825 98.772,193.373 102.372,193.577 105.008 C 193.781 107.644,194.198 110.520,194.503 111.400 C 196.505 117.173,196.291 119.146,193.573 119.961 C 191.518 120.576,188.043 123.072,186.593 124.974 C 185.992 125.761,184.903 126.565,184.068 126.836 C 180.659 127.945,175.600 131.383,175.600 132.591 C 175.600 132.748,175.260 133.354,174.845 133.938 C 174.430 134.522,173.856 135.783,173.570 136.740 C 172.924 138.899,172.207 139.362,168.284 140.157 C 166.570 140.505,164.838 140.966,164.435 141.181 C 164.031 141.397,162.845 141.766,161.799 142.000 C 160.089 142.383,154.099 145.016,153.600 145.603 C 153.490 145.733,152.770 146.270,152.000 146.798 C 149.353 148.612,145.175 153.359,144.605 155.200 C 144.434 155.750,143.974 156.657,143.581 157.214 C 142.880 158.210,141.774 161.037,140.533 165.000 C 140.188 166.100,139.564 167.810,139.145 168.800 C 138.725 169.790,138.040 171.770,137.622 173.200 C 137.203 174.630,136.570 176.700,136.215 177.800 C 135.859 178.900,135.023 181.600,134.357 183.800 C 133.691 186.000,132.709 189.190,132.173 190.889 C 131.638 192.588,131.201 194.208,131.202 194.489 C 131.204 194.957,130.512 197.322,127.773 206.200 C 127.230 207.960,126.789 209.616,126.793 209.880 C 126.797 210.144,126.251 212.124,125.581 214.280 C 123.094 222.276,122.416 224.653,122.013 226.800 C 121.786 228.010,121.330 229.984,121.000 231.187 C 120.216 234.046,120.223 241.398,121.013 244.751 C 121.344 246.154,121.885 249.124,122.216 251.351 C 122.547 253.578,123.072 256.210,123.384 257.200 C 123.696 258.190,124.252 260.530,124.620 262.400 C 124.988 264.270,125.517 266.250,125.797 266.800 C 126.077 267.350,126.440 268.610,126.603 269.600 C 126.988 271.922,129.182 277.358,130.542 279.356 C 131.433 280.666,131.600 281.346,131.600 283.663 C 131.600 287.007,133.080 291.599,134.734 293.387 C 136.892 295.720,137.318 296.743,137.055 298.960 C 136.461 303.963,137.744 307.405,141.398 310.613 C 144.042 312.934,146.077 315.530,146.612 317.262 C 147.144 318.986,151.288 325.745,152.644 327.101 C 153.040 327.497,153.148 329.583,153.101 335.910 C 153.051 342.626,153.168 344.667,153.720 346.658 C 154.165 348.266,154.400 350.596,154.400 353.399 C 154.400 355.755,154.575 360.229,154.789 363.341 C 155.004 366.454,155.375 371.970,155.614 375.600 C 155.854 379.230,156.305 383.460,156.617 385.000 C 156.929 386.540,157.448 389.815,157.770 392.279 C 158.474 397.665,159.120 400.000,159.908 400.000 C 160.606 400.000,160.300 397.723,159.345 395.800 C 159.004 395.114,158.581 392.457,158.359 389.600 C 158.144 386.850,157.604 383.165,157.159 381.411 C 156.465 378.680,156.288 376.037,155.925 363.011 C 155.544 349.292,155.429 347.678,154.751 346.553 C 154.074 345.428,154.000 344.397,154.000 336.082 C 154.000 326.860,154.000 326.858,153.054 326.114 C 152.534 325.705,151.986 324.987,151.838 324.520 C 151.690 324.053,151.035 323.000,150.384 322.180 C 149.733 321.361,149.200 320.473,149.200 320.207 C 149.200 319.941,148.850 319.407,148.423 319.021 C 147.995 318.634,147.530 317.751,147.389 317.059 C 147.014 315.217,145.047 312.574,141.687 309.400 C 138.288 306.189,137.931 305.198,138.041 299.281 C 138.094 296.465,137.981 295.828,137.301 295.081 C 136.861 294.596,136.291 293.795,136.036 293.300 C 135.781 292.805,135.332 292.400,135.038 292.400 C 134.314 292.400,132.829 286.801,132.810 283.994 C 132.798 282.234,131.474 278.549,130.454 277.439 C 130.031 276.977,129.561 275.840,129.409 274.912 C 129.258 273.983,128.791 272.788,128.371 272.255 C 127.923 271.685,127.442 270.106,127.203 268.425 C 126.980 266.851,126.463 264.897,126.055 264.082 C 125.646 263.267,125.110 260.998,124.862 259.040 C 124.615 257.082,124.147 255.073,123.821 254.577 C 123.479 254.054,123.043 251.759,122.788 249.137 C 122.545 246.642,122.088 243.584,121.773 242.342 C 121.095 239.670,121.026 235.706,121.631 234.126 C 121.867 233.507,122.314 231.080,122.624 228.734 C 122.960 226.183,123.494 223.932,123.951 223.134 C 124.372 222.400,124.841 220.720,124.994 219.400 C 125.147 218.080,125.629 216.417,126.066 215.705 C 126.502 214.993,127.023 213.253,127.223 211.839 C 127.423 210.425,127.936 208.667,128.362 207.934 C 128.788 207.200,129.261 205.520,129.414 204.200 C 129.567 202.880,130.042 201.221,130.471 200.513 C 130.899 199.806,131.436 198.006,131.664 196.513 C 131.892 195.021,132.409 193.258,132.813 192.596 C 133.217 191.933,133.672 190.403,133.825 189.196 C 133.978 187.988,134.511 186.100,135.010 185.000 C 135.509 183.900,136.042 182.100,136.194 181.000 C 136.346 179.900,136.804 178.456,137.212 177.791 C 137.620 177.125,138.138 175.436,138.363 174.037 C 138.588 172.638,139.053 171.184,139.395 170.806 C 139.737 170.428,140.271 168.904,140.581 167.420 C 140.892 165.937,141.422 164.418,141.759 164.045 C 142.097 163.672,142.580 162.385,142.833 161.184 C 143.087 159.983,143.625 158.686,144.029 158.302 C 144.433 157.917,144.878 156.990,145.019 156.242 C 145.159 155.493,145.707 154.503,146.237 154.043 C 146.767 153.582,147.200 153.021,147.200 152.795 C 147.200 152.157,152.069 147.459,153.300 146.909 C 153.905 146.638,154.400 146.240,154.400 146.024 C 154.400 145.808,155.165 145.433,156.100 145.191 C 157.035 144.949,158.306 144.388,158.925 143.945 C 159.544 143.502,161.254 142.955,162.725 142.730 C 164.196 142.505,165.940 141.998,166.600 141.603 C 167.260 141.207,168.790 140.754,170.000 140.596 C 172.893 140.217,173.444 139.884,174.010 138.170 C 174.270 137.380,174.913 135.984,175.437 135.067 C 175.961 134.150,176.393 133.085,176.395 132.700 C 176.398 132.315,176.657 132.000,176.971 132.000 C 177.285 132.000,177.897 131.548,178.332 130.996 C 178.766 130.444,179.895 129.719,180.841 129.386 C 181.786 129.052,182.839 128.535,183.180 128.237 C 183.521 127.939,184.250 127.562,184.800 127.400 C 185.350 127.238,186.829 126.047,188.088 124.753 C 189.346 123.459,190.656 122.400,191.000 122.400 C 191.344 122.400,191.726 122.138,191.848 121.818 C 191.971 121.498,193.013 120.962,194.163 120.628 C 197.010 119.800,197.612 118.710,196.672 116.087 C 196.300 115.049,195.997 113.634,195.998 112.942 C 195.999 112.250,195.661 110.540,195.246 109.142 C 194.832 107.744,194.280 104.260,194.019 101.400 C 193.712 98.031,193.274 95.584,192.773 94.449 C 192.118 92.966,192.000 91.755,192.000 86.517 C 192.000 79.122,191.410 73.258,190.420 70.800 C 190.021 69.810,189.571 68.100,189.421 67.000 C 189.270 65.900,188.771 63.609,188.313 61.908 L 187.479 58.816 188.320 55.908 C 188.783 54.309,189.279 52.100,189.423 51.000 C 189.566 49.900,190.103 48.370,190.617 47.600 C 191.130 46.830,191.666 45.722,191.809 45.138 C 191.951 44.554,192.502 43.667,193.034 43.168 C 193.565 42.669,194.000 41.961,194.000 41.594 C 194.000 41.228,194.450 40.723,195.000 40.473 C 195.550 40.222,196.000 39.833,196.000 39.609 C 196.000 39.087,199.072 36.000,199.591 36.000 C 199.806 36.000,200.276 35.550,200.637 35.000 C 200.997 34.450,201.527 34.000,201.815 34.000 C 202.103 34.000,202.849 33.571,203.473 33.046 C 204.096 32.521,205.280 31.810,206.103 31.466 C 206.927 31.122,207.600 30.670,207.600 30.460 C 207.600 30.251,208.498 29.864,209.595 29.601 C 210.693 29.338,212.044 28.766,212.597 28.331 C 213.186 27.867,214.702 27.384,216.253 27.164 C 217.711 26.958,219.555 26.476,220.351 26.094 C 222.508 25.061,233.534 25.081,235.707 26.122 C 236.536 26.519,238.226 27.009,239.462 27.210 C 240.699 27.411,242.012 27.849,242.381 28.183 C 242.750 28.517,243.670 29.001,244.426 29.260 C 245.182 29.518,246.160 30.062,246.600 30.468 C 250.152 33.750,250.095 33.719,253.497 34.179 C 254.431 34.305,255.781 34.766,256.497 35.203 C 257.214 35.640,258.054 35.998,258.364 35.999 C 259.048 36.000,264.000 40.924,264.000 41.603 C 264.000 41.868,264.433 42.599,264.962 43.228 C 265.492 43.857,266.051 45.143,266.205 46.086 C 266.359 47.029,266.871 48.430,267.342 49.200 C 268.739 51.480,268.657 71.156,267.237 74.400 C 266.406 76.300,266.238 77.475,266.007 83.007 C 265.800 87.977,265.591 89.642,265.074 90.430 C 264.708 90.989,264.224 92.417,264.000 93.603 C 263.775 94.788,263.253 96.128,262.841 96.579 C 262.429 97.031,261.965 97.817,261.811 98.326 C 261.492 99.376,257.116 104.000,256.442 104.000 C 255.259 104.000,252.800 107.201,252.800 108.740 C 252.800 109.586,252.686 111.632,252.546 113.286 C 252.226 117.067,252.745 117.754,256.247 118.183 C 257.815 118.376,259.190 118.861,260.369 119.636 C 261.341 120.276,262.298 120.800,262.495 120.800 C 263.093 120.800,265.675 123.728,266.075 124.858 C 266.631 126.431,269.920 129.024,271.800 129.371 C 274.467 129.864,278.588 132.857,279.784 135.169 C 280.134 135.846,280.583 136.400,280.781 136.400 C 280.980 136.400,281.270 137.423,281.426 138.673 C 281.769 141.412,282.752 142.562,285.066 142.932 C 285.962 143.076,286.915 143.456,287.182 143.778 C 287.449 144.099,288.618 144.639,289.781 144.977 C 290.944 145.315,292.102 145.841,292.355 146.146 C 292.608 146.451,293.667 146.934,294.708 147.220 C 295.748 147.505,296.736 147.964,296.902 148.238 C 297.069 148.513,298.082 149.029,299.155 149.385 C 300.228 149.741,301.410 150.369,301.782 150.781 C 302.154 151.192,302.929 151.646,303.503 151.790 C 304.077 151.934,305.067 152.490,305.704 153.026 C 306.340 153.562,307.066 154.000,307.317 154.000 C 307.835 154.000,308.209 154.332,312.557 158.659 C 316.822 162.904,317.198 163.336,317.211 164.014 C 317.217 164.336,317.757 165.307,318.411 166.171 C 319.065 167.035,319.601 168.025,319.601 168.371 C 319.602 168.717,319.991 169.630,320.465 170.400 C 320.939 171.170,321.480 172.610,321.667 173.600 C 321.854 174.590,322.359 175.879,322.789 176.464 C 323.219 177.049,323.751 178.649,323.972 180.018 C 324.192 181.387,324.653 182.817,324.996 183.196 C 325.339 183.575,325.814 185.036,326.052 186.442 C 326.291 187.849,326.809 189.567,327.206 190.260 C 327.602 190.953,328.131 192.843,328.382 194.459 C 328.633 196.076,329.116 197.822,329.455 198.339 C 329.794 198.857,330.315 200.902,330.613 202.883 C 330.910 204.865,331.418 206.782,331.740 207.143 C 332.071 207.514,332.517 209.389,332.766 211.455 C 333.008 213.466,333.542 215.896,333.954 216.855 C 334.366 217.815,334.905 220.455,335.152 222.721 C 335.399 224.988,335.872 227.367,336.204 228.007 C 336.552 228.680,336.972 231.243,337.200 234.085 C 337.633 239.477,337.810 240.599,338.613 243.044 C 340.325 248.258,340.158 274.455,338.397 276.873 C 337.968 277.463,337.448 278.695,337.242 279.611 C 337.036 280.527,336.495 281.673,336.040 282.157 C 335.585 282.642,335.096 283.621,334.953 284.333 C 334.811 285.046,334.373 285.801,333.979 286.011 C 333.586 286.222,333.044 287.070,332.774 287.897 C 332.505 288.724,331.860 289.909,331.342 290.531 C 330.824 291.153,330.400 291.852,330.400 292.085 C 330.400 292.318,329.995 292.901,329.500 293.382 C 328.678 294.179,328.164 294.938,326.393 297.963 C 326.059 298.533,325.314 299.515,324.738 300.145 C 323.044 301.998,322.495 302.681,321.740 303.873 C 321.347 304.493,320.615 305.396,320.113 305.881 C 319.611 306.365,319.200 307.019,319.200 307.334 C 319.200 307.649,318.841 308.001,318.402 308.115 C 317.963 308.230,317.479 308.656,317.327 309.062 C 317.174 309.468,316.588 310.273,316.025 310.851 C 315.461 311.430,314.780 312.150,314.511 312.451 C 314.242 312.753,313.792 313.233,313.511 313.519 C 308.693 318.406,307.415 319.600,306.996 319.600 C 306.722 319.600,306.251 319.899,305.949 320.265 C 305.647 320.631,304.635 321.269,303.700 321.684 C 302.765 322.098,302.000 322.607,302.000 322.813 C 302.000 323.020,301.370 323.452,300.600 323.774 C 299.830 324.096,299.200 324.574,299.200 324.835 C 299.200 325.097,298.901 325.530,298.536 325.798 C 298.170 326.065,297.585 327.003,297.236 327.882 C 296.496 329.742,293.164 332.800,291.876 332.801 C 291.394 332.801,290.370 333.145,289.600 333.566 C 288.830 333.986,287.660 334.591,287.000 334.910 C 284.258 336.234,284.203 336.435,284.169 345.342 C 284.137 353.683,283.999 354.748,282.745 356.354 C 282.081 357.205,281.998 358.113,281.985 364.754 C 281.965 375.282,281.380 384.624,280.605 386.800 C 280.252 387.790,279.794 390.400,279.586 392.600 C 279.379 394.800,279.097 397.365,278.959 398.300 C 278.815 399.283,278.870 400.000,279.089 400.000 C 279.298 400.000,279.774 397.975,280.146 395.500 C 280.517 393.025,281.072 389.830,281.379 388.400 C 281.867 386.118,282.898 375.292,283.473 366.400 C 283.580 364.750,283.502 362.380,283.299 361.133 C 282.999 359.279,283.063 358.518,283.654 356.960 C 285.262 352.726,285.714 349.409,285.417 344.040 C 285.176 339.674,285.233 338.758,285.824 337.518 C 286.563 335.969,286.580 335.959,291.399 333.940 C 294.410 332.679,297.598 330.328,297.599 329.369 C 297.601 328.178,300.305 325.027,302.553 323.596 C 307.997 320.131,311.625 317.228,313.746 314.640 C 314.555 313.652,315.714 312.339,316.320 311.722 C 316.927 311.105,318.541 309.250,319.907 307.600 C 321.272 305.950,322.619 304.328,322.900 303.995 C 323.181 303.662,323.850 302.762,324.386 301.995 C 324.923 301.228,325.461 300.510,325.583 300.400 C 325.948 300.071,328.394 296.700,329.329 295.237 C 329.808 294.488,330.689 293.138,331.287 292.237 C 331.885 291.337,332.875 289.726,333.487 288.659 C 334.099 287.591,335.085 285.881,335.677 284.859 C 339.855 277.649,341.435 270.933,341.091 261.846 C 340.817 254.608,339.710 242.773,338.993 239.400 C 338.665 237.860,338.130 234.438,337.805 231.795 C 337.479 229.152,336.953 226.092,336.635 224.995 C 336.318 223.898,335.846 221.564,335.588 219.809 C 335.329 218.053,334.794 215.533,334.399 214.209 C 334.004 212.884,333.458 210.540,333.186 209.000 C 332.914 207.460,332.449 205.570,332.152 204.800 C 331.856 204.030,331.347 202.116,331.022 200.546 C 330.696 198.976,330.164 196.996,329.839 196.146 C 329.514 195.296,329.037 193.520,328.779 192.200 C 328.520 190.880,328.064 189.323,327.765 188.741 C 327.466 188.158,327.036 186.808,326.809 185.741 C 326.582 184.673,325.973 182.630,325.454 181.200 C 324.406 178.307,323.523 175.784,322.308 172.200 C 321.860 170.880,321.278 169.530,321.013 169.200 C 320.748 168.870,320.284 167.970,319.980 167.200 C 317.215 160.177,310.376 154.017,299.000 148.301 C 294.149 145.864,286.998 142.629,285.148 142.036 C 283.171 141.401,282.424 140.457,282.056 138.127 C 281.452 134.309,277.603 130.384,272.862 128.753 C 269.582 127.624,267.148 125.723,266.542 123.818 C 265.867 121.693,260.955 118.349,257.078 117.375 C 254.228 116.660,252.534 115.264,253.014 114.027 C 253.147 113.682,253.406 112.081,253.588 110.469 C 253.951 107.250,254.549 106.303,257.337 104.524 C 260.133 102.740,263.550 98.173,264.554 94.879 C 264.869 93.846,265.435 92.280,265.812 91.400 C 266.298 90.267,266.552 88.281,266.683 84.600 C 266.809 81.054,267.102 78.697,267.603 77.189 C 269.386 71.821,270.031 55.953,268.683 50.600 C 266.218 40.806,260.745 34.421,254.103 33.590 C 251.932 33.319,251.269 33.013,249.014 31.241 C 245.599 28.557,241.735 26.754,236.000 25.168 C 234.085 24.638,224.723 24.376,221.895 24.772 M195.567 141.300 C 194.411 143.131,194.647 149.455,195.936 151.200 C 196.401 151.828,196.900 153.085,197.045 153.992 C 197.190 154.899,197.821 156.397,198.447 157.321 C 199.073 158.244,199.589 159.402,199.593 159.893 C 199.597 160.384,200.045 161.284,200.590 161.893 C 201.134 162.502,201.933 163.450,202.365 164.000 C 204.222 166.366,205.814 161.967,203.992 159.503 C 203.502 158.841,202.986 157.317,202.796 155.971 C 202.611 154.659,202.107 153.154,201.667 152.595 C 201.230 152.039,200.747 150.643,200.592 149.492 C 200.438 148.342,199.882 146.483,199.356 145.361 C 198.830 144.240,198.400 142.975,198.400 142.550 C 198.400 140.242,196.707 139.495,195.567 141.300 M197.852 144.320 C 198.216 145.574,198.759 146.974,199.058 147.431 C 199.357 147.888,199.793 149.298,200.027 150.565 C 200.262 151.832,200.794 153.428,201.210 154.113 C 201.636 154.813,202.084 156.549,202.235 158.079 C 202.423 159.987,202.667 160.800,203.052 160.800 C 203.407 160.800,203.594 161.257,203.582 162.100 L 203.564 163.400 203.082 162.285 C 202.817 161.671,202.165 160.951,201.633 160.685 C 201.041 160.388,200.419 159.501,200.033 158.400 C 199.685 157.410,199.100 156.150,198.733 155.600 C 198.365 155.050,197.856 153.790,197.600 152.800 C 197.344 151.810,196.856 150.566,196.516 150.036 C 195.675 148.725,195.358 144.351,195.993 142.818 C 196.649 141.234,197.049 141.557,197.852 144.320 M186.670 159.788 C 185.183 161.274,185.963 162.438,194.400 171.317 C 196.270 173.285,198.736 175.909,199.881 177.148 C 201.025 178.387,202.316 179.766,202.750 180.214 C 203.184 180.662,203.762 181.517,204.034 182.114 C 204.306 182.711,204.690 183.200,204.887 183.200 C 205.084 183.200,205.603 184.010,206.041 185.000 C 206.479 185.990,207.015 186.800,207.233 186.800 C 207.450 186.800,207.957 187.568,208.360 188.506 C 208.762 189.444,209.385 190.456,209.745 190.755 C 210.105 191.053,210.400 191.605,210.400 191.981 C 210.400 192.357,210.849 193.550,211.398 194.632 C 212.476 196.757,212.752 200.223,211.999 202.202 C 211.335 203.950,210.818 208.230,210.404 215.400 C 210.164 219.565,209.772 222.877,209.392 223.948 C 208.983 225.098,208.637 228.382,208.379 233.548 C 208.163 237.871,207.731 242.299,207.418 243.400 C 206.520 246.557,206.427 247.349,206.007 255.400 C 205.764 260.057,205.369 263.774,204.989 265.000 C 204.592 266.278,204.225 269.961,203.973 275.200 C 203.721 280.437,203.292 284.748,202.785 287.131 C 202.231 289.733,201.872 293.725,201.595 300.331 C 201.328 306.707,200.997 310.453,200.582 311.800 C 199.496 315.324,198.403 355.269,199.305 358.488 C 199.729 360.005,201.082 360.689,201.947 359.826 C 202.494 359.279,202.671 357.443,203.041 348.487 C 203.283 342.609,203.769 335.730,204.120 333.200 C 204.471 330.670,204.942 324.550,205.166 319.600 C 205.425 313.883,205.800 309.797,206.193 308.400 C 206.585 307.007,206.963 302.900,207.224 297.200 C 207.458 292.093,207.876 287.335,208.191 286.200 C 208.996 283.298,209.161 281.823,209.603 273.600 C 209.829 269.397,210.268 265.250,210.619 264.000 C 210.988 262.686,211.399 258.577,211.638 253.800 C 211.859 249.384,212.284 244.994,212.587 244.000 C 213.348 241.504,213.548 239.693,214.000 231.200 C 214.243 226.615,214.621 223.156,214.992 222.107 C 215.322 221.175,215.778 217.845,216.006 214.707 C 216.290 210.815,216.661 208.428,217.175 207.200 C 217.589 206.210,218.053 204.500,218.206 203.400 C 218.359 202.300,218.894 200.770,219.396 200.000 C 219.897 199.230,220.431 198.068,220.582 197.418 C 220.733 196.768,221.198 195.996,221.617 195.703 C 222.035 195.411,222.590 194.458,222.852 193.586 C 223.117 192.700,223.579 192.000,223.898 192.000 C 224.212 192.000,224.673 191.460,224.923 190.799 C 225.172 190.138,225.697 189.496,226.088 189.372 C 226.480 189.248,226.800 188.981,226.800 188.779 C 226.800 188.301,232.701 182.400,233.179 182.400 C 233.381 182.400,233.660 182.040,233.800 181.600 C 233.940 181.160,234.320 180.800,234.645 180.800 C 234.970 180.800,235.655 180.381,236.166 179.870 C 236.678 179.358,237.639 178.715,238.301 178.441 C 238.964 178.166,239.886 177.505,240.351 176.971 C 240.815 176.437,241.395 176.000,241.640 176.000 C 241.884 176.000,242.619 175.550,243.273 175.000 C 243.927 174.450,244.704 174.000,245.000 174.000 C 245.296 174.000,246.047 173.576,246.669 173.058 C 247.291 172.540,248.453 171.903,249.252 171.643 C 250.050 171.383,251.007 170.834,251.378 170.425 C 251.749 170.015,252.665 169.564,253.413 169.424 C 257.170 168.719,257.057 163.529,253.298 164.139 C 252.476 164.273,251.622 164.628,251.401 164.929 C 251.181 165.230,250.190 165.875,249.200 166.364 C 245.479 168.200,243.922 169.079,243.665 169.488 C 243.519 169.720,242.694 170.204,241.832 170.563 C 240.970 170.922,240.015 171.572,239.709 172.008 C 239.404 172.444,238.815 172.800,238.400 172.800 C 237.985 172.800,237.410 173.133,237.123 173.540 C 236.835 173.948,236.019 174.580,235.308 174.947 C 234.598 175.313,233.608 175.976,233.108 176.421 C 230.940 178.352,223.704 185.592,222.698 186.837 C 222.091 187.586,221.145 188.740,220.595 189.400 C 220.045 190.060,219.480 190.960,219.340 191.400 C 219.200 191.840,218.740 192.443,218.317 192.740 C 217.895 193.038,217.371 193.751,217.152 194.327 C 216.733 195.428,216.020 194.961,216.006 193.578 C 216.003 193.235,215.550 192.345,215.000 191.600 C 214.450 190.855,214.000 189.944,214.000 189.577 C 214.000 189.210,213.460 188.231,212.800 187.400 C 212.140 186.569,211.600 185.587,211.600 185.217 C 211.600 184.847,211.150 184.153,210.600 183.675 C 210.050 183.197,209.600 182.540,209.600 182.217 C 209.600 181.893,209.060 181.013,208.400 180.261 C 207.740 179.509,207.200 178.697,207.200 178.456 C 207.200 178.216,206.750 177.724,206.200 177.363 C 205.650 177.003,205.200 176.497,205.200 176.240 C 205.200 175.718,202.246 172.284,198.600 168.568 C 197.280 167.223,194.832 164.647,193.161 162.846 C 189.832 159.258,188.043 158.415,186.670 159.788 M195.123 166.343 C 198.271 169.564,202.141 173.747,203.723 175.639 C 206.379 178.813,207.127 179.864,208.813 182.790 C 209.151 183.375,209.826 184.361,210.313 184.981 C 210.801 185.601,211.200 186.340,211.200 186.623 C 211.200 186.907,211.627 187.647,212.148 188.269 C 212.670 188.891,213.224 189.983,213.379 190.695 C 213.534 191.408,213.831 192.096,214.038 192.224 C 214.246 192.352,214.886 193.385,215.461 194.520 L 216.506 196.583 217.153 195.647 C 217.509 195.133,218.204 194.274,218.698 193.739 C 219.192 193.205,219.872 192.235,220.208 191.584 C 220.545 190.933,220.957 190.400,221.124 190.400 C 221.291 190.400,221.752 189.851,222.148 189.180 C 223.984 186.073,232.702 177.617,236.356 175.400 C 236.718 175.180,237.416 174.595,237.907 174.100 C 238.398 173.605,239.042 173.200,239.338 173.200 C 239.634 173.200,240.187 172.856,240.567 172.437 C 240.947 172.017,241.830 171.447,242.529 171.171 C 243.228 170.894,244.133 170.383,244.540 170.034 C 246.276 168.547,254.398 164.638,254.838 165.078 C 255.829 166.069,254.744 167.926,252.656 168.814 C 251.525 169.295,250.330 169.917,250.000 170.197 C 249.670 170.476,248.950 170.837,248.400 170.999 C 247.850 171.160,247.038 171.623,246.595 172.027 C 246.152 172.431,245.129 173.038,244.322 173.375 C 243.515 173.712,242.740 174.173,242.600 174.400 C 242.460 174.626,241.683 175.176,240.873 175.622 C 239.269 176.504,236.951 178.068,236.000 178.908 C 235.670 179.200,234.891 179.758,234.270 180.148 C 232.873 181.026,225.006 188.994,223.483 191.074 C 220.933 194.556,217.600 200.757,217.600 202.017 C 217.600 202.353,217.242 203.647,216.804 204.892 C 216.367 206.137,215.813 208.921,215.574 211.078 C 215.336 213.235,214.887 216.210,214.578 217.688 C 214.269 219.167,213.751 223.757,213.427 227.888 C 213.103 232.020,212.568 237.020,212.237 239.000 C 211.906 240.980,211.435 245.658,211.191 249.395 C 210.947 253.132,210.491 257.542,210.177 259.195 C 209.864 260.848,209.340 265.800,209.013 270.200 C 208.686 274.600,208.152 279.730,207.827 281.600 C 207.502 283.470,206.962 289.016,206.627 293.924 C 206.292 298.832,205.920 303.005,205.801 303.198 C 205.407 303.835,204.840 309.679,204.403 317.600 C 204.166 321.890,203.714 326.930,203.398 328.800 C 202.834 332.136,202.575 336.934,202.215 350.694 C 202.036 357.518,201.616 359.776,200.696 358.856 C 199.227 357.387,199.626 324.702,201.215 316.321 C 201.411 315.287,201.767 310.786,202.007 306.320 C 202.246 301.854,202.600 297.030,202.793 295.600 C 202.986 294.170,203.329 291.650,203.556 290.000 C 203.783 288.350,204.160 283.940,204.395 280.200 C 204.630 276.460,205.079 271.960,205.394 270.200 C 205.708 268.440,206.242 263.400,206.579 259.000 C 206.917 254.600,207.450 249.650,207.764 248.000 C 208.078 246.350,208.540 241.940,208.790 238.200 C 209.040 234.460,209.509 230.106,209.833 228.524 C 210.157 226.942,210.687 222.352,211.011 218.324 C 211.334 214.296,211.870 209.488,212.201 207.639 C 213.431 200.777,213.469 195.436,212.300 193.709 C 211.739 192.879,211.151 191.750,210.994 191.200 C 210.837 190.650,210.381 189.840,209.981 189.400 C 209.581 188.960,209.057 188.150,208.816 187.600 C 208.245 186.292,205.074 181.724,203.576 180.049 C 203.232 179.665,202.692 178.982,202.376 178.530 C 202.059 178.078,199.370 175.129,196.400 171.977 C 186.712 161.694,186.505 161.437,187.217 160.580 C 188.106 159.509,189.284 160.368,195.123 166.343 M160.096 227.749 C 159.851 228.288,159.524 229.420,159.371 230.264 C 159.217 231.109,158.778 232.430,158.395 233.200 C 158.012 233.970,157.494 235.563,157.245 236.739 C 156.973 238.024,156.453 239.153,155.944 239.565 C 154.485 240.747,154.439 243.909,155.857 245.596 C 157.240 247.241,157.514 251.342,156.329 252.666 C 155.282 253.837,155.244 255.187,156.232 256.175 C 156.713 256.656,156.987 258.461,157.376 263.705 C 158.059 272.892,160.128 277.637,162.177 274.711 C 163.017 273.512,163.117 229.651,162.284 228.004 C 161.606 226.663,160.642 226.551,160.096 227.749 M161.914 250.920 C 162.027 271.876,161.961 274.000,161.203 274.000 C 160.160 274.000,159.203 269.941,157.994 260.400 C 157.758 258.530,157.388 256.445,157.173 255.767 C 156.887 254.865,156.953 253.866,157.420 252.046 C 158.171 249.114,157.723 246.008,156.336 244.532 C 155.393 243.528,155.544 241.276,156.615 240.388 C 156.941 240.117,157.488 238.932,157.830 237.755 C 158.172 236.578,158.616 235.514,158.815 235.391 C 159.015 235.267,159.375 234.409,159.616 233.483 C 159.857 232.557,160.235 231.102,160.456 230.249 C 161.557 226.005,161.799 229.440,161.914 250.920 M291.412 239.987 C 291.030 240.409,290.628 242.000,290.401 243.988 C 290.194 245.803,289.844 247.506,289.624 247.771 C 289.168 248.321,288.566 252.035,288.031 257.600 C 287.831 259.690,287.391 262.390,287.055 263.600 C 286.719 264.810,286.256 268.860,286.027 272.600 C 285.799 276.340,285.344 280.267,285.017 281.328 C 284.186 284.018,283.757 291.199,284.360 292.325 C 284.897 293.328,286.203 293.490,286.546 292.597 C 286.673 292.265,287.220 291.791,287.762 291.545 C 288.303 291.298,288.948 290.609,289.194 290.014 C 289.441 289.419,290.173 288.351,290.821 287.641 C 291.470 286.931,292.000 286.111,292.000 285.818 C 292.000 285.525,292.261 285.186,292.579 285.063 C 292.898 284.941,293.459 284.247,293.826 283.521 C 294.193 282.794,294.812 281.840,295.201 281.400 C 295.590 280.960,296.043 280.150,296.209 279.600 C 296.374 279.050,296.935 278.091,297.455 277.469 C 297.975 276.847,298.400 276.096,298.400 275.800 C 298.400 275.504,298.850 274.727,299.400 274.073 C 300.300 273.003,300.401 272.531,300.407 269.342 C 300.414 266.077,300.508 265.662,301.607 264.040 C 303.206 261.681,303.204 259.818,301.600 257.800 C 300.940 256.969,300.400 255.900,300.400 255.423 C 300.400 254.946,299.974 253.978,299.454 253.273 C 298.933 252.567,298.393 251.159,298.254 250.143 C 298.115 249.127,297.649 247.726,297.218 247.030 C 296.788 246.333,296.311 244.982,296.158 244.027 C 295.669 240.972,292.761 238.496,291.412 239.987 M293.680 241.714 C 294.698 242.549,296.064 245.868,297.747 251.601 C 298.037 252.591,299.192 255.143,300.312 257.271 L 302.348 261.141 301.090 263.041 C 299.942 264.774,299.817 265.280,299.673 268.771 C 299.549 271.768,299.356 272.774,298.784 273.400 C 298.382 273.840,297.855 274.650,297.612 275.200 C 297.370 275.750,296.557 277.190,295.806 278.400 C 295.055 279.610,294.047 281.320,293.566 282.200 C 293.086 283.080,292.026 284.610,291.212 285.600 C 290.398 286.590,289.389 287.993,288.970 288.717 C 288.000 290.393,285.627 291.885,285.144 291.123 C 284.701 290.425,284.710 290.273,285.378 286.780 C 285.696 285.118,286.239 280.528,286.584 276.580 C 286.930 272.631,287.474 267.960,287.793 266.200 C 288.113 264.440,288.565 261.110,288.798 258.800 C 289.031 256.490,289.567 253.070,289.989 251.200 C 290.411 249.330,290.882 246.630,291.034 245.200 C 291.513 240.714,291.876 240.236,293.680 241.714 M213.455 382.500 C 213.123 383.030,212.782 385.124,212.624 387.600 C 212.477 389.910,212.116 392.520,211.823 393.400 C 210.788 396.508,210.608 400.000,211.484 400.000 C 212.182 400.000,212.307 399.351,212.975 392.300 C 213.376 388.065,213.862 384.178,214.056 383.663 L 214.408 382.727 215.704 383.537 C 216.674 384.143,217.216 384.960,217.859 386.783 C 218.332 388.123,218.901 389.440,219.123 389.710 C 219.346 389.979,219.813 391.298,220.160 392.640 C 220.507 393.983,221.063 395.732,221.396 396.528 C 221.728 397.323,222.000 398.430,222.000 398.987 C 222.000 399.544,222.205 400.000,222.456 400.000 C 223.203 400.000,222.596 395.262,221.693 394.040 C 221.268 393.465,220.794 392.154,220.640 391.126 C 220.486 390.097,220.033 388.839,219.634 388.328 C 219.235 387.818,218.605 386.352,218.235 385.071 C 217.654 383.063,217.373 382.664,216.193 382.171 C 214.376 381.412,214.117 381.443,213.455 382.500 " stroke="none" fill="#490c04" fill-rule="evenodd"></path><path id="path4" d="M222.112 24.051 C 220.303 24.241,218.053 24.679,217.112 25.024 C 216.170 25.369,214.583 25.884,213.585 26.167 C 211.132 26.864,203.577 30.603,201.943 31.929 C 198.377 34.823,195.545 37.405,194.400 38.808 C 193.630 39.751,192.593 41.019,192.095 41.626 C 191.597 42.232,190.924 43.362,190.601 44.137 C 190.277 44.912,189.832 45.657,189.611 45.793 C 189.391 45.929,188.927 47.017,188.580 48.209 C 188.233 49.402,187.646 50.968,187.275 51.689 C 186.139 53.895,186.305 63.920,187.523 66.729 C 188.056 67.956,188.620 70.406,188.856 72.518 C 189.080 74.532,189.541 76.814,189.878 77.590 C 190.331 78.630,190.538 80.942,190.667 86.400 C 190.823 93.040,191.164 96.042,192.417 101.800 C 192.609 102.680,192.773 104.582,192.783 106.027 C 192.802 108.986,193.480 113.165,194.054 113.861 C 195.792 115.972,195.130 118.476,192.607 119.336 C 190.537 120.041,188.310 121.678,185.583 124.500 C 184.243 125.887,183.441 126.400,182.615 126.400 C 181.238 126.400,177.840 128.614,176.200 130.580 C 175.540 131.371,174.660 132.399,174.244 132.865 C 173.829 133.330,173.277 134.541,173.019 135.556 C 172.423 137.894,170.840 138.864,166.520 139.535 C 164.824 139.799,163.069 140.254,162.619 140.547 C 162.168 140.839,161.087 141.312,160.217 141.598 C 158.254 142.242,153.185 144.784,152.471 145.482 C 152.181 145.767,151.813 146.000,151.653 146.000 C 150.637 146.000,145.167 152.202,143.909 154.783 C 143.528 155.562,143.040 156.470,142.823 156.800 C 142.188 157.768,140.389 162.419,139.735 164.783 C 139.403 165.983,138.809 167.603,138.415 168.383 C 138.020 169.162,137.564 170.430,137.400 171.200 C 137.236 171.970,136.764 173.269,136.350 174.087 C 135.936 174.905,135.409 176.525,135.178 177.687 C 134.948 178.849,134.425 180.520,134.017 181.400 C 133.608 182.280,133.062 184.080,132.804 185.400 C 132.546 186.720,132.002 188.520,131.595 189.400 C 131.188 190.280,130.729 191.900,130.575 193.000 C 130.421 194.100,129.973 195.640,129.579 196.422 C 129.186 197.204,128.658 199.004,128.407 200.422 C 128.155 201.840,127.613 203.720,127.202 204.600 C 126.791 205.480,126.329 207.100,126.175 208.200 C 126.021 209.300,125.568 210.848,125.169 211.641 C 124.770 212.433,124.228 214.323,123.964 215.841 C 123.701 217.358,123.244 218.969,122.949 219.419 C 122.655 219.870,122.127 221.750,121.777 223.598 C 121.426 225.445,120.838 227.507,120.470 228.178 C 119.465 230.011,119.481 245.770,120.491 248.400 C 120.870 249.390,121.451 252.136,121.781 254.501 C 122.111 256.867,122.635 259.297,122.946 259.901 C 123.257 260.506,123.716 262.325,123.967 263.945 C 124.217 265.565,124.757 267.635,125.166 268.545 C 125.576 269.455,126.043 271.010,126.204 272.000 C 126.365 272.990,126.925 274.609,127.448 275.597 C 127.972 276.585,128.400 277.558,128.400 277.759 C 128.400 277.960,128.888 278.764,129.484 279.545 C 130.455 280.819,130.594 281.414,130.822 285.283 C 130.990 288.131,131.273 289.839,131.654 290.300 C 131.972 290.685,132.537 291.675,132.909 292.500 C 133.282 293.325,133.765 294.000,133.983 294.000 C 134.925 294.000,135.600 296.422,135.600 299.802 C 135.600 302.348,135.801 303.684,136.371 304.936 C 136.795 305.866,137.259 307.072,137.402 307.614 C 137.545 308.156,138.387 309.230,139.271 310.000 C 142.641 312.933,144.400 314.757,144.400 315.319 C 144.400 315.640,144.660 316.118,144.978 316.382 C 145.296 316.646,145.850 317.748,146.210 318.831 C 146.570 319.914,147.027 320.800,147.227 320.800 C 147.426 320.800,147.857 321.441,148.184 322.224 C 148.801 323.700,149.914 325.313,151.549 327.098 C 152.425 328.054,152.478 328.353,152.236 330.967 C 151.492 339.012,151.498 339.899,152.319 344.260 C 152.933 347.521,153.196 351.036,153.377 358.400 C 153.509 363.790,153.792 369.076,154.005 370.147 C 154.219 371.218,154.666 375.583,154.999 379.847 C 155.332 384.111,155.865 388.358,156.185 389.286 C 156.504 390.213,156.988 393.003,157.261 395.486 C 157.701 399.500,157.841 400.000,158.525 400.000 C 159.136 400.000,159.237 399.816,159.021 399.100 C 158.871 398.605,158.480 396.490,158.151 394.400 C 157.823 392.310,157.208 388.620,156.786 386.200 C 156.364 383.780,155.829 378.920,155.598 375.400 C 155.366 371.880,155.002 366.454,154.789 363.341 C 154.575 360.229,154.400 355.755,154.400 353.399 C 154.400 350.596,154.165 348.266,153.720 346.658 C 153.168 344.667,153.051 342.626,153.101 335.910 C 153.148 329.583,153.040 327.497,152.644 327.101 C 151.288 325.745,147.144 318.986,146.612 317.262 C 146.077 315.530,144.042 312.934,141.398 310.613 C 137.744 307.405,136.461 303.963,137.055 298.960 C 137.318 296.743,136.892 295.720,134.734 293.387 C 133.080 291.599,131.600 287.007,131.600 283.663 C 131.600 281.346,131.433 280.666,130.542 279.356 C 129.182 277.358,126.988 271.922,126.603 269.600 C 126.440 268.610,126.077 267.350,125.797 266.800 C 125.517 266.250,124.988 264.270,124.620 262.400 C 124.252 260.530,123.696 258.190,123.384 257.200 C 123.072 256.210,122.547 253.578,122.216 251.351 C 121.885 249.124,121.344 246.154,121.013 244.751 C 120.223 241.398,120.216 234.046,121.000 231.187 C 121.330 229.984,121.786 228.010,122.013 226.800 C 122.416 224.653,123.094 222.276,125.581 214.280 C 126.251 212.124,126.797 210.144,126.793 209.880 C 126.789 209.616,127.230 207.960,127.773 206.200 C 130.512 197.322,131.204 194.957,131.202 194.489 C 131.201 194.208,131.638 192.588,132.173 190.889 C 132.709 189.190,133.691 186.000,134.357 183.800 C 135.023 181.600,135.859 178.900,136.215 177.800 C 136.570 176.700,137.203 174.630,137.622 173.200 C 138.040 171.770,138.725 169.790,139.145 168.800 C 139.564 167.810,140.188 166.100,140.533 165.000 C 141.774 161.037,142.880 158.210,143.581 157.214 C 143.974 156.657,144.434 155.750,144.605 155.200 C 145.175 153.359,149.353 148.612,152.000 146.798 C 152.770 146.270,153.490 145.733,153.600 145.603 C 154.099 145.016,160.089 142.383,161.799 142.000 C 162.845 141.766,164.031 141.397,164.435 141.181 C 164.838 140.966,166.570 140.505,168.284 140.157 C 172.207 139.362,172.924 138.899,173.570 136.740 C 173.856 135.783,174.430 134.522,174.845 133.938 C 175.260 133.354,175.600 132.748,175.600 132.591 C 175.600 131.383,180.659 127.945,184.068 126.836 C 184.903 126.565,185.992 125.761,186.593 124.974 C 188.043 123.072,191.518 120.576,193.573 119.961 C 196.291 119.146,196.505 117.173,194.503 111.400 C 194.198 110.520,193.781 107.644,193.577 105.008 C 193.373 102.372,192.825 98.772,192.360 97.008 C 191.697 94.493,191.456 92.028,191.247 85.600 C 191.100 81.090,190.857 77.205,190.707 76.966 C 190.557 76.727,190.070 74.477,189.626 71.966 C 189.181 69.455,188.453 66.369,188.009 65.110 C 184.266 54.510,192.384 37.937,204.600 31.238 C 205.480 30.756,206.650 30.112,207.200 29.808 C 209.390 28.598,212.694 27.208,214.400 26.780 C 215.390 26.531,217.280 25.953,218.600 25.495 C 221.393 24.527,232.866 24.262,235.800 25.098 C 241.965 26.856,245.564 28.529,249.014 31.241 C 251.269 33.013,251.932 33.319,254.103 33.590 C 260.745 34.421,266.218 40.806,268.683 50.600 C 270.031 55.953,269.386 71.821,267.603 77.189 C 267.102 78.697,266.809 81.054,266.683 84.600 C 266.552 88.281,266.298 90.267,265.812 91.400 C 265.435 92.280,264.869 93.846,264.554 94.879 C 263.550 98.173,260.133 102.740,257.337 104.524 C 254.549 106.303,253.951 107.250,253.588 110.469 C 253.406 112.081,253.147 113.682,253.014 114.027 C 252.534 115.264,254.228 116.660,257.078 117.375 C 260.955 118.349,265.867 121.693,266.542 123.818 C 267.148 125.723,269.582 127.624,272.862 128.753 C 277.603 130.384,281.452 134.309,282.056 138.127 C 282.424 140.457,283.171 141.401,285.148 142.036 C 286.998 142.629,294.149 145.864,299.000 148.301 C 310.376 154.017,317.215 160.177,319.980 167.200 C 320.284 167.970,320.748 168.870,321.013 169.200 C 321.278 169.530,321.860 170.880,322.308 172.200 C 323.523 175.784,324.406 178.307,325.454 181.200 C 325.973 182.630,326.582 184.673,326.809 185.741 C 327.036 186.808,327.466 188.158,327.765 188.741 C 328.064 189.323,328.520 190.880,328.779 192.200 C 329.037 193.520,329.514 195.296,329.839 196.146 C 330.164 196.996,330.696 198.976,331.022 200.546 C 331.347 202.116,331.856 204.030,332.152 204.800 C 332.449 205.570,332.914 207.460,333.186 209.000 C 333.458 210.540,334.004 212.884,334.399 214.209 C 334.794 215.533,335.329 218.053,335.588 219.809 C 335.846 221.564,336.318 223.898,336.635 224.995 C 336.953 226.092,337.479 229.152,337.805 231.795 C 338.130 234.438,338.665 237.860,338.993 239.400 C 339.710 242.773,340.817 254.608,341.091 261.846 C 341.435 270.933,339.855 277.649,335.677 284.859 C 335.085 285.881,334.099 287.591,333.487 288.659 C 332.875 289.726,331.885 291.337,331.287 292.237 C 330.689 293.138,329.808 294.488,329.329 295.237 C 328.394 296.700,325.948 300.071,325.583 300.400 C 325.461 300.510,324.923 301.228,324.386 301.995 C 323.850 302.762,323.181 303.662,322.900 303.995 C 322.619 304.328,321.272 305.950,319.907 307.600 C 318.541 309.250,316.927 311.105,316.320 311.722 C 315.714 312.339,314.555 313.652,313.746 314.640 C 311.625 317.228,307.997 320.131,302.553 323.596 C 300.305 325.027,297.601 328.178,297.599 329.369 C 297.598 330.328,294.410 332.679,291.399 333.940 C 286.580 335.959,286.563 335.969,285.824 337.518 C 285.233 338.758,285.176 339.674,285.417 344.040 C 285.714 349.409,285.262 352.726,283.654 356.960 C 283.063 358.518,282.999 359.279,283.299 361.133 C 283.502 362.380,283.580 364.750,283.474 366.400 C 282.888 375.499,281.907 385.772,281.371 388.400 C 280.644 391.972,279.617 398.315,279.607 399.300 C 279.591 400.835,280.365 399.880,280.579 398.100 C 280.705 397.055,281.085 395.340,281.424 394.289 C 281.763 393.238,282.212 390.763,282.420 388.789 C 283.140 381.982,283.614 378.193,284.019 376.000 C 284.242 374.790,284.493 369.930,284.577 365.200 C 284.724 356.846,285.010 354.593,286.083 353.300 C 286.455 352.852,286.622 350.710,286.678 345.656 C 286.776 336.769,286.952 336.022,288.958 336.006 C 290.056 335.997,295.606 333.249,295.859 332.589 C 295.977 332.282,296.434 331.916,296.873 331.777 C 297.313 331.637,297.944 330.865,298.275 330.061 C 298.606 329.258,299.199 328.240,299.592 327.800 C 299.986 327.360,300.427 326.608,300.572 326.128 C 300.732 325.601,301.283 325.157,301.964 325.008 C 302.584 324.872,303.448 324.428,303.884 324.023 C 304.319 323.617,305.198 322.988,305.838 322.626 C 309.115 320.766,312.546 317.678,316.357 313.157 C 317.729 311.531,319.694 309.264,320.725 308.119 C 321.756 306.975,323.140 305.305,323.800 304.410 C 324.460 303.514,325.585 302.048,326.300 301.153 C 327.015 300.257,327.600 299.271,327.600 298.962 C 327.600 298.653,327.768 298.400,327.974 298.400 C 328.419 298.400,330.492 295.570,331.491 293.600 C 331.881 292.830,332.431 292.052,332.714 291.872 C 332.997 291.692,333.512 290.837,333.858 289.972 C 334.204 289.107,334.628 288.400,334.800 288.400 C 334.972 288.400,335.391 287.705,335.731 286.855 C 336.071 286.005,336.811 284.630,337.375 283.799 C 337.939 282.968,338.400 282.036,338.400 281.728 C 338.400 281.420,338.756 280.680,339.192 280.084 C 339.627 279.488,340.248 277.830,340.573 276.400 C 340.897 274.970,341.453 272.810,341.809 271.600 C 342.550 269.082,342.414 254.757,341.620 251.800 C 341.384 250.920,340.921 247.230,340.591 243.600 C 340.261 239.970,339.733 236.100,339.417 235.000 C 339.101 233.900,338.559 230.688,338.212 227.863 C 337.866 225.038,337.343 222.248,337.051 221.663 C 336.759 221.078,336.301 218.992,336.035 217.027 C 335.768 215.061,335.278 212.811,334.946 212.027 C 334.614 211.242,334.077 208.982,333.754 207.003 C 333.430 205.025,332.926 203.042,332.635 202.597 C 332.343 202.151,331.880 200.440,331.607 198.793 C 331.334 197.147,330.795 195.080,330.410 194.200 C 330.025 193.320,329.491 191.430,329.224 190.000 C 328.956 188.570,328.502 187.033,328.215 186.584 C 327.927 186.135,327.474 184.695,327.209 183.384 C 326.944 182.073,326.451 180.567,326.113 180.038 C 325.776 179.509,325.247 177.991,324.938 176.665 C 324.628 175.339,324.036 173.702,323.621 173.027 C 323.207 172.352,322.742 171.123,322.588 170.296 C 322.435 169.468,322.140 168.687,321.933 168.559 C 321.727 168.431,321.146 167.398,320.643 166.263 C 320.141 165.128,319.430 163.953,319.065 163.651 C 318.699 163.349,318.400 162.870,318.400 162.586 C 318.400 161.181,311.476 154.289,307.966 152.200 C 307.227 151.760,305.987 151.001,305.211 150.513 C 304.435 150.025,302.900 149.163,301.800 148.598 C 300.700 148.033,299.350 147.321,298.800 147.015 C 298.250 146.710,296.540 145.887,295.000 145.187 C 293.460 144.487,291.300 143.489,290.200 142.968 C 289.100 142.448,287.497 141.844,286.638 141.626 C 284.315 141.038,282.800 139.408,282.800 137.499 C 282.800 134.654,277.360 128.400,274.886 128.400 C 272.883 128.400,267.210 124.437,267.195 123.027 C 267.191 122.610,265.009 120.526,262.589 118.628 C 261.923 118.106,260.573 117.463,259.589 117.200 C 258.605 116.937,257.574 116.536,257.298 116.310 C 257.021 116.083,256.212 115.779,255.500 115.633 C 253.140 115.150,254.135 108.559,256.914 106.261 C 261.180 102.733,264.232 99.010,264.998 96.400 C 265.159 95.850,265.613 94.860,266.007 94.200 C 266.938 92.638,267.600 88.195,267.600 83.508 C 267.600 80.624,267.774 79.428,268.360 78.278 C 268.778 77.459,269.244 75.485,269.395 73.894 C 269.546 72.302,269.967 69.740,270.330 68.200 C 271.180 64.600,271.165 57.114,270.301 53.800 C 269.958 52.480,269.555 50.500,269.407 49.400 C 269.259 48.300,268.830 46.860,268.452 46.200 C 268.075 45.540,267.444 44.145,267.050 43.100 C 266.656 42.055,266.198 41.200,266.031 41.200 C 265.865 41.200,265.528 40.760,265.283 40.221 C 263.721 36.794,258.822 33.304,254.787 32.745 C 253.228 32.529,251.648 32.085,251.276 31.758 C 249.096 29.844,246.996 28.364,246.159 28.154 C 245.632 28.022,245.200 27.758,245.200 27.568 C 245.200 27.378,244.193 26.929,242.961 26.571 C 241.730 26.214,239.974 25.590,239.060 25.185 C 236.082 23.868,228.620 23.369,222.112 24.051 M195.993 142.818 C 195.358 144.351,195.675 148.725,196.516 150.036 C 196.856 150.566,197.344 151.810,197.600 152.800 C 197.856 153.790,198.365 155.050,198.733 155.600 C 199.100 156.150,199.685 157.410,200.033 158.400 C 200.419 159.501,201.041 160.388,201.633 160.685 C 202.165 160.951,202.817 161.671,203.082 162.285 L 203.564 163.400 203.582 162.100 C 203.594 161.257,203.407 160.800,203.052 160.800 C 202.667 160.800,202.423 159.987,202.235 158.079 C 202.084 156.549,201.636 154.813,201.210 154.113 C 200.794 153.428,200.262 151.832,200.027 150.565 C 199.793 149.298,199.357 147.888,199.058 147.431 C 198.759 146.974,198.216 145.574,197.852 144.320 C 197.049 141.557,196.649 141.234,195.993 142.818 M197.172 146.276 C 197.187 146.978,197.020 147.664,196.800 147.800 C 196.550 147.955,196.411 147.177,196.428 145.724 C 196.458 143.258,197.116 143.748,197.172 146.276 M199.338 151.100 C 199.646 153.026,199.227 154.970,198.761 153.779 C 198.335 152.691,198.326 149.600,198.749 149.600 C 198.941 149.600,199.206 150.275,199.338 151.100 M187.217 160.580 C 186.505 161.437,186.712 161.694,196.400 171.977 C 199.370 175.129,202.059 178.078,202.376 178.530 C 202.692 178.982,203.232 179.665,203.576 180.049 C 205.074 181.724,208.245 186.292,208.816 187.600 C 209.057 188.150,209.581 188.960,209.981 189.400 C 210.381 189.840,210.837 190.650,210.994 191.200 C 211.151 191.750,211.739 192.879,212.300 193.709 C 213.469 195.436,213.431 200.777,212.201 207.639 C 211.870 209.488,211.334 214.296,211.011 218.324 C 210.687 222.352,210.157 226.942,209.833 228.524 C 209.509 230.106,209.040 234.460,208.790 238.200 C 208.540 241.940,208.078 246.350,207.764 248.000 C 207.450 249.650,206.917 254.600,206.579 259.000 C 206.242 263.400,205.708 268.440,205.394 270.200 C 205.079 271.960,204.630 276.460,204.395 280.200 C 204.160 283.940,203.783 288.350,203.556 290.000 C 203.329 291.650,202.986 294.170,202.793 295.600 C 202.600 297.030,202.246 301.854,202.007 306.320 C 201.767 310.786,201.411 315.287,201.215 316.321 C 199.626 324.702,199.227 357.387,200.696 358.856 C 201.616 359.776,202.036 357.518,202.215 350.694 C 202.575 336.934,202.834 332.136,203.398 328.800 C 203.714 326.930,204.166 321.890,204.403 317.600 C 204.840 309.679,205.407 303.835,205.801 303.198 C 205.920 303.005,206.292 298.832,206.627 293.924 C 206.962 289.016,207.502 283.470,207.827 281.600 C 208.152 279.730,208.686 274.600,209.013 270.200 C 209.340 265.800,209.864 260.848,210.177 259.195 C 210.491 257.542,210.947 253.132,211.191 249.395 C 211.435 245.658,211.906 240.980,212.237 239.000 C 212.568 237.020,213.103 232.020,213.427 227.888 C 213.751 223.757,214.269 219.167,214.578 217.688 C 214.887 216.210,215.336 213.235,215.574 211.078 C 215.813 208.921,216.367 206.137,216.804 204.892 C 217.242 203.647,217.600 202.353,217.600 202.017 C 217.600 200.757,220.933 194.556,223.483 191.074 C 225.006 188.994,232.873 181.026,234.270 180.148 C 234.891 179.758,235.670 179.200,236.000 178.908 C 236.951 178.068,239.269 176.504,240.873 175.622 C 241.683 175.176,242.460 174.626,242.600 174.400 C 242.740 174.173,243.515 173.712,244.322 173.375 C 245.129 173.038,246.152 172.431,246.595 172.027 C 247.038 171.623,247.850 171.160,248.400 170.999 C 248.950 170.837,249.670 170.476,250.000 170.197 C 250.330 169.917,251.525 169.295,252.656 168.814 C 254.744 167.926,255.829 166.069,254.838 165.078 C 254.398 164.638,246.276 168.547,244.540 170.034 C 244.133 170.383,243.228 170.894,242.529 171.171 C 241.830 171.447,240.947 172.017,240.567 172.437 C 240.187 172.856,239.634 173.200,239.338 173.200 C 239.042 173.200,238.398 173.605,237.907 174.100 C 237.416 174.595,236.718 175.180,236.356 175.400 C 232.702 177.617,223.984 186.073,222.148 189.180 C 221.752 189.851,221.291 190.400,221.124 190.400 C 220.957 190.400,220.545 190.933,220.208 191.584 C 219.872 192.235,219.192 193.205,218.698 193.739 C 218.204 194.274,217.509 195.133,217.153 195.647 L 216.506 196.583 215.461 194.520 C 214.886 193.385,214.246 192.352,214.038 192.224 C 213.831 192.096,213.534 191.408,213.379 190.695 C 213.224 189.983,212.670 188.891,212.148 188.269 C 211.627 187.647,211.200 186.907,211.200 186.623 C 211.200 186.340,210.801 185.601,210.313 184.981 C 209.826 184.361,209.151 183.375,208.813 182.790 C 207.127 179.864,206.379 178.813,203.723 175.639 C 199.685 170.812,189.569 160.537,188.556 160.234 C 188.034 160.078,187.524 160.209,187.217 160.580 M190.729 163.333 C 190.804 163.719,190.603 164.000,190.253 164.000 C 189.510 164.000,189.061 163.348,189.413 162.779 C 189.775 162.193,190.574 162.530,190.729 163.333 M192.801 166.159 C 192.211 166.749,191.432 165.813,191.775 164.927 C 192.044 164.234,192.084 164.236,192.630 164.979 C 193.013 165.499,193.070 165.890,192.801 166.159 M195.128 167.931 C 195.198 168.409,195.085 168.800,194.877 168.800 C 194.263 168.800,193.508 167.673,193.802 167.196 C 194.215 166.529,194.984 166.955,195.128 167.931 M252.974 167.558 C 253.242 167.991,252.280 168.400,250.991 168.400 C 249.832 168.400,249.327 167.729,250.295 167.477 C 251.537 167.153,252.746 167.189,252.974 167.558 M197.466 169.827 C 197.871 170.884,196.847 171.536,196.186 170.641 C 195.878 170.224,195.720 169.729,195.836 169.541 C 196.185 168.977,197.208 169.157,197.466 169.827 M248.400 170.000 C 248.400 170.220,247.950 170.400,247.400 170.400 C 246.850 170.400,246.400 170.220,246.400 170.000 C 246.400 169.780,246.850 169.600,247.400 169.600 C 247.950 169.600,248.400 169.780,248.400 170.000 M199.528 172.331 C 199.611 172.896,199.444 173.200,199.051 173.200 C 198.274 173.200,197.865 172.530,198.165 171.748 C 198.490 170.899,199.373 171.277,199.528 172.331 M244.353 171.962 C 244.787 172.238,244.724 172.370,244.056 172.582 C 242.984 172.922,242.078 172.450,242.857 171.956 C 243.534 171.528,243.667 171.528,244.353 171.962 M201.614 174.217 C 202.004 174.686,202.015 174.945,201.660 175.300 C 201.088 175.872,199.747 174.733,200.176 174.038 C 200.551 173.433,201.011 173.490,201.614 174.217 M241.200 174.355 C 241.200 174.550,240.660 174.788,240.000 174.885 C 238.845 175.055,238.505 174.829,239.067 174.267 C 239.462 173.872,241.200 173.943,241.200 174.355 M203.802 176.404 C 203.939 176.626,203.933 177.181,203.788 177.638 L 203.524 178.470 202.939 177.634 C 202.367 176.817,202.497 176.000,203.200 176.000 C 203.394 176.000,203.665 176.182,203.802 176.404 M237.402 176.403 C 237.539 176.624,237.362 176.917,237.008 177.052 C 236.242 177.346,235.815 177.022,236.184 176.427 C 236.516 175.889,237.078 175.878,237.402 176.403 M206.121 181.300 C 205.681 182.085,205.202 181.448,205.218 180.100 L 205.236 178.600 205.762 179.800 C 206.052 180.460,206.213 181.135,206.121 181.300 M208.087 184.073 C 207.546 184.614,207.051 183.764,207.391 182.881 C 207.633 182.253,207.686 182.258,208.068 182.939 C 208.342 183.426,208.348 183.812,208.087 184.073 M210.400 187.424 C 210.400 187.741,210.220 188.000,210.000 188.000 C 209.780 188.000,209.600 187.629,209.600 187.176 C 209.600 186.723,209.780 186.464,210.000 186.600 C 210.220 186.736,210.400 187.107,210.400 187.424 M212.283 191.695 C 212.187 192.193,212.105 191.880,212.101 191.000 C 212.096 190.120,212.175 189.713,212.275 190.095 C 212.375 190.478,212.379 191.198,212.283 191.695 M216.549 197.540 C 217.841 198.159,217.793 199.537,216.371 202.661 C 215.955 203.575,215.405 206.095,215.149 208.261 C 214.600 212.893,214.305 213.718,213.642 212.478 C 213.303 211.845,213.299 209.653,213.625 203.914 C 214.122 195.178,214.220 194.586,214.932 196.014 C 215.202 196.556,215.930 197.243,216.549 197.540 M213.018 214.456 C 213.274 215.263,213.090 220.950,212.549 228.935 C 212.167 234.571,211.381 232.766,211.480 226.480 C 211.641 216.172,212.193 211.858,213.018 214.456 M160.456 230.249 C 160.235 231.102,159.857 232.557,159.616 233.483 C 159.375 234.409,159.015 235.267,158.815 235.391 C 158.616 235.514,158.172 236.578,157.830 237.755 C 157.488 238.932,156.941 240.117,156.615 240.388 C 155.544 241.276,155.393 243.528,156.336 244.532 C 157.723 246.008,158.171 249.114,157.420 252.046 C 156.953 253.866,156.887 254.865,157.173 255.767 C 157.388 256.445,157.758 258.530,157.994 260.400 C 159.203 269.941,160.160 274.000,161.203 274.000 C 161.961 274.000,162.027 271.876,161.914 250.920 C 161.799 229.440,161.557 226.005,160.456 230.249 M161.142 252.500 C 161.100 266.422,160.994 270.469,160.762 267.025 C 160.510 263.296,160.272 262.023,159.672 261.211 C 158.443 259.549,157.787 254.954,158.362 252.032 C 158.941 249.089,158.325 245.134,157.111 244.003 C 156.354 243.298,156.359 243.255,157.371 241.257 C 157.937 240.140,158.400 238.977,158.400 238.673 C 158.400 238.368,158.940 237.554,159.600 236.863 C 160.389 236.037,160.800 235.195,160.800 234.404 C 160.800 233.742,160.890 233.200,161.000 233.200 C 161.110 233.200,161.174 241.885,161.142 252.500 M210.652 243.374 C 210.368 252.221,210.174 254.000,209.491 254.000 C 209.050 254.000,209.378 236.861,209.861 234.650 C 210.563 231.435,210.912 235.278,210.652 243.374 M291.646 241.700 C 291.462 242.195,291.187 243.770,291.034 245.200 C 290.882 246.630,290.411 249.330,289.989 251.200 C 289.567 253.070,289.031 256.490,288.798 258.800 C 288.565 261.110,288.113 264.440,287.793 266.200 C 287.474 267.960,286.930 272.631,286.584 276.580 C 286.239 280.528,285.696 285.118,285.378 286.780 C 284.710 290.273,284.701 290.425,285.144 291.123 C 285.627 291.885,288.000 290.393,288.970 288.717 C 289.389 287.993,290.398 286.590,291.212 285.600 C 292.026 284.610,293.086 283.080,293.566 282.200 C 294.047 281.320,295.055 279.610,295.806 278.400 C 296.557 277.190,297.370 275.750,297.612 275.200 C 297.855 274.650,298.382 273.840,298.784 273.400 C 299.356 272.774,299.549 271.768,299.673 268.771 C 299.817 265.280,299.942 264.774,301.090 263.041 L 302.348 261.141 300.312 257.271 C 299.192 255.143,298.037 252.591,297.747 251.601 C 295.145 242.738,292.721 238.805,291.646 241.700 M295.005 246.524 C 295.153 247.446,295.690 249.100,296.200 250.200 C 296.710 251.300,297.252 252.863,297.403 253.674 C 297.555 254.484,298.021 255.457,298.440 255.836 C 298.858 256.214,299.200 256.831,299.200 257.206 C 299.200 257.581,299.650 258.551,300.200 259.362 C 301.396 261.125,301.397 261.129,300.459 262.174 C 299.310 263.454,298.253 267.147,298.356 269.524 C 298.450 271.686,297.421 274.587,296.200 275.600 C 295.893 275.855,295.426 276.725,295.164 277.532 C 294.902 278.339,294.448 279.141,294.157 279.312 C 293.865 279.484,293.261 280.384,292.814 281.312 C 292.367 282.241,291.451 283.720,290.778 284.600 C 290.106 285.480,289.188 286.785,288.738 287.500 C 288.289 288.215,287.688 288.800,287.403 288.800 C 286.855 288.800,286.278 287.722,286.571 287.247 C 286.667 287.092,286.942 284.003,287.183 280.383 C 287.424 276.762,287.882 272.720,288.200 271.400 C 288.519 270.080,289.049 266.120,289.379 262.600 C 289.709 259.080,290.242 255.356,290.563 254.324 C 290.884 253.293,291.363 250.287,291.628 247.646 L 292.109 242.842 293.423 243.845 C 294.404 244.593,294.806 245.273,295.005 246.524 M208.537 260.438 C 208.441 269.274,208.000 275.267,207.459 275.082 C 206.934 274.902,206.891 265.801,207.382 258.680 C 207.842 252.008,208.616 253.187,208.537 260.438 M206.230 285.362 C 205.899 295.353,205.550 298.566,205.007 296.632 C 204.661 295.401,205.032 278.979,205.448 277.105 C 206.191 273.757,206.505 277.070,206.230 285.362 M203.994 305.437 C 204.002 312.976,203.559 320.822,203.139 320.562 C 202.741 320.316,202.682 306.315,203.061 301.835 C 203.465 297.054,203.987 299.069,203.994 305.437 M201.551 338.300 C 201.524 344.185,201.374 350.890,201.218 353.200 C 201.025 356.057,200.913 352.635,200.867 342.500 C 200.823 332.789,200.939 327.600,201.200 327.600 C 201.458 327.600,201.583 331.401,201.551 338.300 M214.166 383.256 C 213.266 384.712,212.145 400.000,212.938 400.000 C 213.346 400.000,213.541 398.808,213.741 395.100 C 214.220 386.207,214.340 385.600,215.608 385.600 C 216.584 385.600,216.757 385.811,217.178 387.500 C 217.439 388.545,217.990 389.977,218.403 390.683 C 218.815 391.389,219.342 392.987,219.572 394.233 C 219.803 395.480,220.263 397.045,220.596 397.712 C 220.928 398.378,221.200 399.165,221.200 399.461 C 221.200 399.758,221.380 400.000,221.600 400.000 C 222.192 400.000,222.085 398.178,221.396 396.528 C 221.063 395.732,220.507 393.983,220.160 392.640 C 219.813 391.298,219.346 389.979,219.123 389.710 C 218.901 389.440,218.332 388.123,217.859 386.783 C 216.946 384.194,214.833 382.176,214.166 383.256 " stroke="none" fill="#761304" fill-rule="evenodd"></path></g></svg>